<?xml version="1.0" encoding="UTF-8" standalone="no"?>
<!DOCTYPE svg PUBLIC "-//W3C//DTD SVG 1.1//EN"
 "http://www.w3.org/Graphics/SVG/1.1/DTD/svg11.dtd">
<!-- Generated by graphviz version 2.40.1 (20161225.0304)
 -->
<!-- Title: G Pages: 1 -->
<svg width="429pt" height="881pt"
 viewBox="0.00 0.00 429.00 881.00" xmlns="http://www.w3.org/2000/svg" xmlns:xlink="http://www.w3.org/1999/xlink">
<g id="graph0" class="graph" transform="scale(1 1) rotate(0) translate(4 877)">
<title>G</title>
<polygon fill="#ffffff" stroke="transparent" points="-4,4 -4,-877 425,-877 425,4 -4,4"/>
<g id="clust3" class="cluster">
<title>cluster_vm</title>
<polygon fill="none" stroke="#000000" points="67,-8 67,-723 413,-723 413,-8 67,-8"/>
<text text-anchor="middle" x="240" y="-707.8" font-family="Times,serif" font-size="14.00" fill="#000000">VM</text>
</g>
<g id="clust4" class="cluster">
<title>cluster_container</title>
<polygon fill="none" stroke="#000000" points="75,-129 75,-692 261,-692 261,-129 75,-129"/>
<text text-anchor="middle" x="168" y="-676.8" font-family="Times,serif" font-size="14.00" fill="#000000">sqlflow/sqlflow:latest</text>
</g>
<g id="clust5" class="cluster">
<title>cluster_minikube</title>
<polygon fill="none" stroke="#000000" points="269,-16 269,-329 405,-329 405,-16 269,-16"/>
<text text-anchor="middle" x="337" y="-313.8" font-family="Times,serif" font-size="14.00" fill="#000000">minikube</text>
</g>
<!-- User1 -->
<g id="node1" class="node">
<title>User1</title>
<ellipse fill="none" stroke="#000000" cx="45" cy="-855" rx="27" ry="18"/>
<text text-anchor="middle" x="45" y="-851.3" font-family="Times,serif" font-size="14.00" fill="#000000">Lily</text>
</g>
<!-- Browser1 -->
<g id="node4" class="node">
<title>Browser1</title>
<polygon fill="none" stroke="#000000" points="90,-800 0,-800 0,-764 90,-764 90,-800"/>
<text text-anchor="middle" x="45" y="-778.3" font-family="Times,serif" font-size="14.00" fill="#000000">Web browser</text>
</g>
<!-- User1&#45;&gt;Browser1 -->
<g id="edge1" class="edge">
<title>User1&#45;&gt;Browser1</title>
<path fill="none" stroke="#000000" d="M45,-836.9551C45,-828.8828 45,-819.1764 45,-810.1817"/>
<polygon fill="#000000" stroke="#000000" points="48.5001,-810.0903 45,-800.0904 41.5001,-810.0904 48.5001,-810.0903"/>
</g>
<!-- User2 -->
<g id="node2" class="node">
<title>User2</title>
<ellipse fill="none" stroke="#000000" cx="160" cy="-855" rx="27" ry="18"/>
<text text-anchor="middle" x="160" y="-851.3" font-family="Times,serif" font-size="14.00" fill="#000000">Bob</text>
</g>
<!-- Browser2 -->
<g id="node5" class="node">
<title>Browser2</title>
<polygon fill="none" stroke="#000000" points="205,-800 115,-800 115,-764 205,-764 205,-800"/>
<text text-anchor="middle" x="160" y="-778.3" font-family="Times,serif" font-size="14.00" fill="#000000">Web browser</text>
</g>
<!-- User2&#45;&gt;Browser2 -->
<g id="edge2" class="edge">
<title>User2&#45;&gt;Browser2</title>
<path fill="none" stroke="#000000" d="M160,-836.9551C160,-828.8828 160,-819.1764 160,-810.1817"/>
<polygon fill="#000000" stroke="#000000" points="163.5001,-810.0903 160,-800.0904 156.5001,-810.0904 163.5001,-810.0903"/>
</g>
<!-- User3 -->
<g id="node3" class="node">
<title>User3</title>
<ellipse fill="none" stroke="#000000" cx="310" cy="-855" rx="27" ry="18"/>
<text text-anchor="middle" x="310" y="-851.3" font-family="Times,serif" font-size="14.00" fill="#000000">Eva</text>
</g>
<!-- Client -->
<g id="node6" class="node">
<title>Client</title>
<polygon fill="none" stroke="#000000" points="397,-800 223,-800 223,-764 397,-764 397,-800"/>
<text text-anchor="middle" x="310" y="-778.3" font-family="Times,serif" font-size="14.00" fill="#000000">sqlflow command&#45;line client</text>
</g>
<!-- User3&#45;&gt;Client -->
<g id="edge10" class="edge">
<title>User3&#45;&gt;Client</title>
<path fill="none" stroke="#000000" d="M310,-836.9551C310,-828.8828 310,-819.1764 310,-810.1817"/>
<polygon fill="#000000" stroke="#000000" points="313.5001,-810.0903 310,-800.0904 306.5001,-810.0904 313.5001,-810.0903"/>
</g>
<!-- Jupyter -->
<g id="node7" class="node">
<title>Jupyter</title>
<polygon fill="none" stroke="#000000" points="253,-661 83,-661 83,-623 253,-623 253,-661"/>
<text text-anchor="middle" x="168" y="-645.8" font-family="Times,serif" font-size="14.00" fill="#000000">Jupyter Notebook server +</text>
<text text-anchor="middle" x="168" y="-630.8" font-family="Times,serif" font-size="14.00" fill="#000000"> SQLFlow magic command</text>
</g>
<!-- Browser1&#45;&gt;Jupyter -->
<g id="edge3" class="edge">
<title>Browser1&#45;&gt;Jupyter</title>
<path fill="none" stroke="#000000" d="M43.322,-763.9491C43.1793,-753.6821 44.4293,-740.9321 50,-731 65.6639,-703.0727 94.0947,-681.2247 119.1241,-666.165"/>
<polygon fill="#000000" stroke="#000000" points="120.9184,-669.1704 127.809,-661.1224 117.4035,-663.1168 120.9184,-669.1704"/>
<text text-anchor="middle" x="104" y="-734.8" font-family="Times,serif" font-size="14.00" fill="#000000">SQL/Flow program</text>
</g>
<!-- Browser2&#45;&gt;Jupyter -->
<g id="edge4" class="edge">
<title>Browser2&#45;&gt;Jupyter</title>
<path fill="none" stroke="#000000" d="M161.0295,-763.9841C162.3691,-740.5404 164.7271,-699.2751 166.3257,-671.2994"/>
<polygon fill="#000000" stroke="#000000" points="169.8212,-671.4765 166.8975,-661.293 162.8326,-671.0771 169.8212,-671.4765"/>
</g>
<!-- SQLFlow -->
<g id="node8" class="node">
<title>SQLFlow</title>
<polygon fill="none" stroke="#000000" points="242.5,-444 135.5,-444 135.5,-408 242.5,-408 242.5,-444"/>
<text text-anchor="middle" x="189" y="-422.3" font-family="Times,serif" font-size="14.00" fill="#000000">SQLFlow server</text>
</g>
<!-- Client&#45;&gt;SQLFlow -->
<g id="edge11" class="edge">
<title>Client&#45;&gt;SQLFlow</title>
<path fill="none" stroke="#000000" d="M306.1827,-763.9725C300.8989,-737.4043 292,-686.1101 292,-642 292,-642 292,-642 292,-481.5 292,-459.4707 273.5147,-446.1457 252.2063,-438.1037"/>
<polygon fill="#000000" stroke="#000000" points="253.2059,-434.7472 242.6118,-434.8695 250.9698,-441.3805 253.2059,-434.7472"/>
<text text-anchor="middle" x="346" y="-555.8" font-family="Times,serif" font-size="14.00" fill="#000000">SQL/Flow program</text>
</g>
<!-- Jupyter&#45;&gt;SQLFlow -->
<g id="edge5" class="edge">
<title>Jupyter&#45;&gt;SQLFlow</title>
<path fill="none" stroke="#000000" d="M155.9611,-622.9007C150.3962,-612.2988 145,-598.6324 145,-585.5 145,-585.5 145,-585.5 145,-481.5 145,-470.2971 150.5731,-460.0386 157.7525,-451.4713"/>
<polygon fill="#000000" stroke="#000000" points="160.3831,-453.783 164.6835,-444.1002 155.2834,-448.9878 160.3831,-453.783"/>
<text text-anchor="middle" x="199" y="-522.8" font-family="Times,serif" font-size="14.00" fill="#000000">SQL/Flow program</text>
</g>
<!-- DBMS -->
<g id="node9" class="node">
<title>DBMS</title>
<polygon fill="none" stroke="#000000" points="190,-173 128,-173 128,-137 190,-137 190,-173"/>
<text text-anchor="middle" x="159" y="-151.3" font-family="Times,serif" font-size="14.00" fill="#000000">MySQL</text>
</g>
<!-- SQLFlow&#45;&gt;DBMS -->
<g id="edge9" class="edge">
<title>SQLFlow&#45;&gt;DBMS</title>
<path fill="none" stroke="#000000" d="M164.5,-407.9864C152.25,-396.7735 140,-381.1485 140,-363.5 140,-363.5 140,-363.5 140,-217.5 140,-205.8117 143.0795,-193.4047 146.7589,-182.7521"/>
<polygon fill="#000000" stroke="#000000" points="150.1239,-183.7486 150.3895,-173.1571 143.5769,-181.2713 150.1239,-183.7486"/>
<text text-anchor="middle" x="192" y="-276.3" font-family="Times,serif" font-size="14.00" fill="#000000">verify data schema</text>
</g>
<!-- Argo -->
<g id="node10" class="node">
<title>Argo</title>
<polygon fill="none" stroke="#000000" points="331,-298 277,-298 277,-262 331,-262 331,-298"/>
<text text-anchor="middle" x="304" y="-276.3" font-family="Times,serif" font-size="14.00" fill="#000000">Argo</text>
</g>
<!-- SQLFlow&#45;&gt;Argo -->
<g id="edge6" class="edge">
<title>SQLFlow&#45;&gt;Argo</title>
<path fill="none" stroke="#000000" d="M203.3323,-407.8042C223.3895,-382.3403 259.9607,-335.9108 283.0669,-306.5759"/>
<polygon fill="#000000" stroke="#000000" points="286.0488,-308.4466 289.4871,-298.4251 280.5498,-304.1151 286.0488,-308.4466"/>
<text text-anchor="middle" x="285.5" y="-359.8" font-family="Times,serif" font-size="14.00" fill="#000000">Argo workflow</text>
</g>
<!-- Argo&#45;&gt;DBMS -->
<g id="edge7" class="edge">
<title>Argo&#45;&gt;DBMS</title>
<path fill="none" stroke="#000000" d="M276.8256,-267.3376C244.4507,-252.1687 194.2862,-228.3667 191,-225 179.5838,-213.3042 171.7716,-196.8051 166.7257,-182.7625"/>
<polygon fill="#000000" stroke="#000000" points="169.9864,-181.4744 163.5284,-173.0753 163.3391,-183.6684 169.9864,-181.4744"/>
<text text-anchor="middle" x="253" y="-213.8" font-family="Times,serif" font-size="14.00" fill="#000000">submit SQL statement</text>
</g>
<!-- AI -->
<g id="node11" class="node">
<title>AI</title>
<polygon fill="none" stroke="#000000" points="396.5,-62 277.5,-62 277.5,-24 396.5,-24 396.5,-62"/>
<text text-anchor="middle" x="337" y="-46.8" font-family="Times,serif" font-size="14.00" fill="#000000">AI engine:</text>
<text text-anchor="middle" x="337" y="-31.8" font-family="Times,serif" font-size="14.00" fill="#000000">container&#45;local run</text>
</g>
<!-- Argo&#45;&gt;AI -->
<g id="edge8" class="edge">
<title>Argo&#45;&gt;AI</title>
<path fill="none" stroke="#000000" d="M311.1576,-261.9876C315.4177,-249.6654 320,-232.8448 320,-217.5 320,-217.5 320,-217.5 320,-99.5 320,-90.2969 322.0938,-80.5946 324.8119,-71.8769"/>
<polygon fill="#000000" stroke="#000000" points="328.2041,-72.7792 328.2012,-62.1843 321.5965,-70.4685 328.2041,-72.7792"/>
<text text-anchor="middle" x="358.5" y="-151.3" font-family="Times,serif" font-size="14.00" fill="#000000">submit AI job</text>
</g>
</g>
</svg>
