<?xml version="1.0" encoding="UTF-8" standalone="no"?>
<!DOCTYPE svg PUBLIC "-//W3C//DTD SVG 1.1//EN"
 "http://www.w3.org/Graphics/SVG/1.1/DTD/svg11.dtd">
<!-- Generated by graphviz version 2.42.3 (20191010.1750)
 -->
<!-- Title: G Pages: 1 -->
<svg width="1096pt" height="383pt"
 viewBox="0.00 0.00 1096.10 383.00" xmlns="http://www.w3.org/2000/svg" xmlns:xlink="http://www.w3.org/1999/xlink">
<g id="graph0" class="graph" transform="scale(1 1) rotate(0) translate(4 379)">
<title>G</title>
<polygon fill="white" stroke="transparent" points="-4,4 -4,-379 1092.1,-379 1092.1,4 -4,4"/>
<g id="clust3" class="cluster">
<title>cluster_vm</title>
<polygon fill="none" stroke="black" points="8,-8 8,-312 688,-312 688,-8 8,-8"/>
<text text-anchor="middle" x="348" y="-296.8" font-family="Times,serif" font-size="14.00">VM</text>
</g>
<g id="clust4" class="cluster">
<title>cluster_container</title>
<polygon fill="none" stroke="black" points="278,-16 278,-176 680,-176 680,-16 278,-16"/>
<text text-anchor="middle" x="479" y="-160.8" font-family="Times,serif" font-size="14.00">sqlflow/sqlflow:latest</text>
</g>
<g id="clust5" class="cluster">
<title>cluster_minikube</title>
<polygon fill="none" stroke="black" points="16,-102 16,-282 154,-282 154,-102 16,-102"/>
<text text-anchor="middle" x="85" y="-266.8" font-family="Times,serif" font-size="14.00">minikube</text>
</g>
<!-- User1 -->
<g id="node1" class="node">
<title>User1</title>
<ellipse fill="none" stroke="black" cx="741" cy="-357" rx="27" ry="18"/>
<text text-anchor="middle" x="741" y="-352.8" font-family="Times,serif" font-size="14.00">Lily</text>
</g>
<!-- Browser1 -->
<g id="node4" class="node">
<title>Browser1</title>
<polygon fill="none" stroke="black" points="785.91,-252 696.09,-252 696.09,-216 785.91,-216 785.91,-252"/>
<text text-anchor="middle" x="741" y="-229.8" font-family="Times,serif" font-size="14.00">Web browser</text>
</g>
<!-- User1&#45;&gt;Browser1 -->
<g id="edge1" class="edge">
<title>User1&#45;&gt;Browser1</title>
<path fill="none" stroke="black" d="M741,-338.92C741,-319.04 741,-285.92 741,-262.42"/>
<polygon fill="black" stroke="black" points="744.5,-262.38 741,-252.38 737.5,-262.38 744.5,-262.38"/>
</g>
<!-- User2 -->
<g id="node2" class="node">
<title>User2</title>
<ellipse fill="none" stroke="black" cx="849" cy="-357" rx="27" ry="18"/>
<text text-anchor="middle" x="849" y="-352.8" font-family="Times,serif" font-size="14.00">Bob</text>
</g>
<!-- Browser2 -->
<g id="node5" class="node">
<title>Browser2</title>
<polygon fill="none" stroke="black" points="893.91,-252 804.09,-252 804.09,-216 893.91,-216 893.91,-252"/>
<text text-anchor="middle" x="849" y="-229.8" font-family="Times,serif" font-size="14.00">Web browser</text>
</g>
<!-- User2&#45;&gt;Browser2 -->
<g id="edge2" class="edge">
<title>User2&#45;&gt;Browser2</title>
<path fill="none" stroke="black" d="M849,-338.92C849,-319.04 849,-285.92 849,-262.42"/>
<polygon fill="black" stroke="black" points="852.5,-262.38 849,-252.38 845.5,-262.38 852.5,-262.38"/>
</g>
<!-- User3 -->
<g id="node3" class="node">
<title>User3</title>
<ellipse fill="none" stroke="black" cx="1000" cy="-357" rx="27" ry="18"/>
<text text-anchor="middle" x="1000" y="-352.8" font-family="Times,serif" font-size="14.00">Eva</text>
</g>
<!-- Client -->
<g id="node6" class="node">
<title>Client</title>
<polygon fill="none" stroke="black" points="1088.19,-252 911.81,-252 911.81,-216 1088.19,-216 1088.19,-252"/>
<text text-anchor="middle" x="1000" y="-229.8" font-family="Times,serif" font-size="14.00">sqlflow command&#45;line client</text>
</g>
<!-- User3&#45;&gt;Client -->
<g id="edge10" class="edge">
<title>User3&#45;&gt;Client</title>
<path fill="none" stroke="black" d="M1000,-338.92C1000,-319.04 1000,-285.92 1000,-262.42"/>
<polygon fill="black" stroke="black" points="1003.5,-262.38 1000,-252.38 996.5,-262.38 1003.5,-262.38"/>
</g>
<!-- Jupyter -->
<g id="node7" class="node">
<title>Jupyter</title>
<polygon fill="none" stroke="black" points="537.65,-146 366.35,-146 366.35,-110 537.65,-110 537.65,-146"/>
<text text-anchor="middle" x="452" y="-130.8" font-family="Times,serif" font-size="14.00">Jupyter Notebook server +</text>
<text text-anchor="middle" x="452" y="-116.8" font-family="Times,serif" font-size="14.00"> SQLFlow magic command</text>
</g>
<!-- Browser1&#45;&gt;Jupyter -->
<g id="edge3" class="edge">
<title>Browser1&#45;&gt;Jupyter</title>
<path fill="none" stroke="black" d="M695.93,-224.57C666.73,-218.53 628.09,-209.45 594.95,-198 572.79,-190.34 568.17,-186.09 547,-176 530.06,-167.93 511.54,-158.83 495.39,-150.8"/>
<polygon fill="black" stroke="black" points="496.69,-147.54 486.18,-146.21 493.57,-153.8 496.69,-147.54"/>
<text text-anchor="middle" x="650.03" y="-186.8" font-family="Times,serif" font-size="14.00">SQL/Flow program</text>
</g>
<!-- Browser2&#45;&gt;Jupyter -->
<g id="edge4" class="edge">
<title>Browser2&#45;&gt;Jupyter</title>
<path fill="none" stroke="black" d="M803.93,-218.76C800.91,-217.82 797.91,-216.9 795,-216 768.39,-207.82 761.02,-207.91 735,-198 721.25,-192.76 719.28,-187.55 705,-184 636.76,-167.04 615.04,-193.74 547,-176 526.57,-170.67 505.36,-160.68 488.19,-151.27"/>
<polygon fill="black" stroke="black" points="489.52,-148 479.09,-146.14 486.08,-154.1 489.52,-148"/>
</g>
<!-- SQLFlow -->
<g id="node8" class="node">
<title>SQLFlow</title>
<polygon fill="none" stroke="black" points="506.43,-60 397.57,-60 397.57,-24 506.43,-24 506.43,-60"/>
<text text-anchor="middle" x="452" y="-37.8" font-family="Times,serif" font-size="14.00">SQLFlow server</text>
</g>
<!-- Client&#45;&gt;SQLFlow -->
<g id="edge11" class="edge">
<title>Client&#45;&gt;SQLFlow</title>
<path fill="none" stroke="black" d="M995.5,-215.75C991.88,-205.16 985.76,-192.11 976,-184 840.69,-71.59 623.99,-48.15 516.62,-43.69"/>
<polygon fill="black" stroke="black" points="516.7,-40.19 506.58,-43.32 516.44,-47.19 516.7,-40.19"/>
<text text-anchor="middle" x="1018.03" y="-123.8" font-family="Times,serif" font-size="14.00">SQL/Flow program</text>
</g>
<!-- ModelZoo -->
<g id="node9" class="node">
<title>ModelZoo</title>
<polygon fill="none" stroke="black" points="672.3,-146 555.7,-146 555.7,-110 672.3,-110 672.3,-146"/>
<text text-anchor="middle" x="614" y="-123.8" font-family="Times,serif" font-size="14.00">Model Zoo server</text>
</g>
<!-- Client&#45;&gt;ModelZoo -->
<g id="edge12" class="edge">
<title>Client&#45;&gt;ModelZoo</title>
<path fill="none" stroke="black" d="M911.73,-217.43C908.79,-216.94 905.87,-216.46 903,-216 848.99,-207.28 833.96,-212.54 781.22,-198 737.96,-186.07 690.89,-165.96 657.75,-150.52"/>
<polygon fill="black" stroke="black" points="658.89,-147.19 648.36,-146.1 655.91,-153.52 658.89,-147.19"/>
<text text-anchor="middle" x="878.39" y="-186.8" font-family="Times,serif" font-size="14.00">share models or use shared models</text>
</g>
<!-- Jupyter&#45;&gt;SQLFlow -->
<g id="edge5" class="edge">
<title>Jupyter&#45;&gt;SQLFlow</title>
<path fill="none" stroke="black" d="M452,-109.6C452,-98.26 452,-83.23 452,-70.32"/>
<polygon fill="black" stroke="black" points="455.5,-70.1 452,-60.1 448.5,-70.1 455.5,-70.1"/>
<text text-anchor="middle" x="507.03" y="-80.8" font-family="Times,serif" font-size="14.00">SQL/Flow program</text>
</g>
<!-- Argo -->
<g id="node11" class="node">
<title>Argo</title>
<polygon fill="none" stroke="black" points="146,-252 92,-252 92,-216 146,-216 146,-252"/>
<text text-anchor="middle" x="119" y="-229.8" font-family="Times,serif" font-size="14.00">Argo</text>
</g>
<!-- SQLFlow&#45;&gt;Argo -->
<g id="edge6" class="edge">
<title>SQLFlow&#45;&gt;Argo</title>
<path fill="none" stroke="black" d="M397.35,-48.17C329.33,-55.79 218.77,-72.41 191.3,-102 161.96,-133.62 200.92,-162.1 177,-198 171.53,-206.21 163.42,-212.79 154.98,-217.94"/>
<polygon fill="black" stroke="black" points="153.25,-214.9 146.17,-222.79 156.62,-221.03 153.25,-214.9"/>
<text text-anchor="middle" x="234.85" y="-123.8" font-family="Times,serif" font-size="14.00">Argo workflow</text>
</g>
<!-- DBMS -->
<g id="node10" class="node">
<title>DBMS</title>
<polygon fill="none" stroke="black" points="347.9,-146 286.1,-146 286.1,-110 347.9,-110 347.9,-146"/>
<text text-anchor="middle" x="317" y="-123.8" font-family="Times,serif" font-size="14.00">MySQL</text>
</g>
<!-- Argo&#45;&gt;DBMS -->
<g id="edge7" class="edge">
<title>Argo&#45;&gt;DBMS</title>
<path fill="none" stroke="black" d="M146.04,-218.81C157.77,-212.55 171.64,-205.04 184,-198 194.5,-192.02 195.88,-187.94 207.3,-184 234.69,-174.55 246.1,-189 272,-176 282.25,-170.86 291.45,-162.4 298.82,-154.06"/>
<polygon fill="black" stroke="black" points="301.63,-156.16 305.3,-146.22 296.23,-151.7 301.63,-156.16"/>
<text text-anchor="middle" x="270.35" y="-186.8" font-family="Times,serif" font-size="14.00">submit SQL statement</text>
</g>
<!-- Argo&#45;&gt;DBMS -->
<g id="edge9" class="edge">
<title>Argo&#45;&gt;DBMS</title>
<path fill="none" stroke="black" d="M146.29,-232.71C198.28,-231.52 308.47,-225.71 332,-198 341.93,-186.31 338.57,-169.56 332.54,-155.49"/>
<polygon fill="black" stroke="black" points="335.58,-153.75 328.07,-146.28 329.28,-156.8 335.58,-153.75"/>
<text text-anchor="middle" x="390.86" y="-186.8" font-family="Times,serif" font-size="14.00">verify data schema</text>
</g>
<!-- AI -->
<g id="node12" class="node">
<title>AI</title>
<polygon fill="none" stroke="black" points="145.84,-146 24.16,-146 24.16,-110 145.84,-110 145.84,-146"/>
<text text-anchor="middle" x="85" y="-130.8" font-family="Times,serif" font-size="14.00">AI engine:</text>
<text text-anchor="middle" x="85" y="-116.8" font-family="Times,serif" font-size="14.00">container&#45;local run</text>
</g>
<!-- Argo&#45;&gt;AI -->
<g id="edge8" class="edge">
<title>Argo&#45;&gt;AI</title>
<path fill="none" stroke="black" d="M108.32,-215.65C105.28,-210.16 102.2,-203.96 99.99,-198 95.02,-184.62 91.47,-169.15 89.08,-156.24"/>
<polygon fill="black" stroke="black" points="92.48,-155.37 87.33,-146.11 85.58,-156.56 92.48,-155.37"/>
<text text-anchor="middle" x="138.51" y="-186.8" font-family="Times,serif" font-size="14.00">submit AI job</text>
</g>
</g>
</svg>
