<?xml version="1.0" encoding="UTF-8" standalone="no"?>
<!DOCTYPE svg PUBLIC "-//W3C//DTD SVG 1.1//EN"
 "http://www.w3.org/Graphics/SVG/1.1/DTD/svg11.dtd">
<!-- Generated by graphviz version 2.40.1 (20161225.0304)
 -->
<!-- Title: G Pages: 1 -->
<svg width="488pt" height="471pt"
 viewBox="0.00 0.00 487.50 471.00" xmlns="http://www.w3.org/2000/svg" xmlns:xlink="http://www.w3.org/1999/xlink">
<g id="graph0" class="graph" transform="scale(1 1) rotate(0) translate(4 467)">
<title>G</title>
<polygon fill="#ffffff" stroke="transparent" points="-4,4 -4,-467 483.5,-467 483.5,4 -4,4"/>
<!-- User1 -->
<g id="node1" class="node">
<title>User1</title>
<ellipse fill="none" stroke="#000000" cx="105.5" cy="-445" rx="27" ry="18"/>
<text text-anchor="middle" x="105.5" y="-441.3" font-family="Times,serif" font-size="14.00" fill="#000000">Lily</text>
</g>
<!-- Browser1 -->
<g id="node4" class="node">
<title>Browser1</title>
<polygon fill="none" stroke="#000000" points="150.5,-390 60.5,-390 60.5,-354 150.5,-354 150.5,-390"/>
<text text-anchor="middle" x="105.5" y="-368.3" font-family="Times,serif" font-size="14.00" fill="#000000">Web browser</text>
</g>
<!-- User1&#45;&gt;Browser1 -->
<g id="edge1" class="edge">
<title>User1&#45;&gt;Browser1</title>
<path fill="none" stroke="#000000" d="M105.5,-426.9551C105.5,-418.8828 105.5,-409.1764 105.5,-400.1817"/>
<polygon fill="#000000" stroke="#000000" points="109.0001,-400.0903 105.5,-390.0904 102.0001,-400.0904 109.0001,-400.0903"/>
</g>
<!-- User2 -->
<g id="node2" class="node">
<title>User2</title>
<ellipse fill="none" stroke="#000000" cx="220.5" cy="-445" rx="27" ry="18"/>
<text text-anchor="middle" x="220.5" y="-441.3" font-family="Times,serif" font-size="14.00" fill="#000000">Bob</text>
</g>
<!-- Browser2 -->
<g id="node5" class="node">
<title>Browser2</title>
<polygon fill="none" stroke="#000000" points="265.5,-390 175.5,-390 175.5,-354 265.5,-354 265.5,-390"/>
<text text-anchor="middle" x="220.5" y="-368.3" font-family="Times,serif" font-size="14.00" fill="#000000">Web browser</text>
</g>
<!-- User2&#45;&gt;Browser2 -->
<g id="edge2" class="edge">
<title>User2&#45;&gt;Browser2</title>
<path fill="none" stroke="#000000" d="M220.5,-426.9551C220.5,-418.8828 220.5,-409.1764 220.5,-400.1817"/>
<polygon fill="#000000" stroke="#000000" points="224.0001,-400.0903 220.5,-390.0904 217.0001,-400.0904 224.0001,-400.0903"/>
</g>
<!-- User3 -->
<g id="node3" class="node">
<title>User3</title>
<ellipse fill="none" stroke="#000000" cx="370.5" cy="-445" rx="27" ry="18"/>
<text text-anchor="middle" x="370.5" y="-441.3" font-family="Times,serif" font-size="14.00" fill="#000000">Eva</text>
</g>
<!-- Client -->
<g id="node6" class="node">
<title>Client</title>
<polygon fill="none" stroke="#000000" points="457.5,-390 283.5,-390 283.5,-354 457.5,-354 457.5,-390"/>
<text text-anchor="middle" x="370.5" y="-368.3" font-family="Times,serif" font-size="14.00" fill="#000000">sqlflow command&#45;line client</text>
</g>
<!-- User3&#45;&gt;Client -->
<g id="edge10" class="edge">
<title>User3&#45;&gt;Client</title>
<path fill="none" stroke="#000000" d="M370.5,-426.9551C370.5,-418.8828 370.5,-409.1764 370.5,-400.1817"/>
<polygon fill="#000000" stroke="#000000" points="374.0001,-400.0903 370.5,-390.0904 367.0001,-400.0904 374.0001,-400.0903"/>
</g>
<!-- Jupyter -->
<g id="node7" class="node">
<title>Jupyter</title>
<polygon fill="none" stroke="#000000" points="313.5,-303 143.5,-303 143.5,-265 313.5,-265 313.5,-303"/>
<text text-anchor="middle" x="228.5" y="-287.8" font-family="Times,serif" font-size="14.00" fill="#000000">Jupyter Notebook server +</text>
<text text-anchor="middle" x="228.5" y="-272.8" font-family="Times,serif" font-size="14.00" fill="#000000"> SQLFlow magic command</text>
</g>
<!-- Browser1&#45;&gt;Jupyter -->
<g id="edge3" class="edge">
<title>Browser1&#45;&gt;Jupyter</title>
<path fill="none" stroke="#000000" d="M103.063,-353.5893C102.6836,-342.9446 104.1154,-329.9326 111.5,-321 115.8538,-315.7335 125.3721,-310.7832 137.1933,-306.3212"/>
<polygon fill="#000000" stroke="#000000" points="138.3582,-309.6217 146.6345,-303.0071 136.0397,-303.0168 138.3582,-309.6217"/>
<text text-anchor="middle" x="165.5" y="-324.8" font-family="Times,serif" font-size="14.00" fill="#000000">SQL/Flow program</text>
</g>
<!-- Browser2&#45;&gt;Jupyter -->
<g id="edge4" class="edge">
<title>Browser2&#45;&gt;Jupyter</title>
<path fill="none" stroke="#000000" d="M222.1576,-353.7663C223.2193,-342.0875 224.621,-326.6692 225.8366,-313.2978"/>
<polygon fill="#000000" stroke="#000000" points="229.3417,-313.3993 226.7615,-303.1235 222.3704,-312.7655 229.3417,-313.3993"/>
</g>
<!-- SQLFlow -->
<g id="node8" class="node">
<title>SQLFlow</title>
<polygon fill="none" stroke="#000000" points="352,-214 245,-214 245,-178 352,-178 352,-214"/>
<text text-anchor="middle" x="298.5" y="-192.3" font-family="Times,serif" font-size="14.00" fill="#000000">SQLFlow server</text>
</g>
<!-- Client&#45;&gt;SQLFlow -->
<g id="edge11" class="edge">
<title>Client&#45;&gt;SQLFlow</title>
<path fill="none" stroke="#000000" d="M372.5116,-353.6496C374.688,-325.3039 375.1343,-270.1609 351.5,-232 348.9267,-227.845 345.6755,-224.0558 342.0548,-220.6293"/>
<polygon fill="#000000" stroke="#000000" points="344.1309,-217.8037 334.203,-214.104 339.6569,-223.1873 344.1309,-217.8037"/>
<text text-anchor="middle" x="425.5" y="-280.3" font-family="Times,serif" font-size="14.00" fill="#000000">SQL/Flow program</text>
</g>
<!-- Jupyter&#45;&gt;SQLFlow -->
<g id="edge5" class="edge">
<title>Jupyter&#45;&gt;SQLFlow</title>
<path fill="none" stroke="#000000" d="M230.7354,-264.7585C232.724,-254.2695 236.4676,-241.5238 243.5,-232 246.6395,-227.7482 250.4431,-223.8566 254.5678,-220.334"/>
<polygon fill="#000000" stroke="#000000" points="256.9999,-222.8796 262.8053,-214.0169 252.7401,-217.3249 256.9999,-222.8796"/>
<text text-anchor="middle" x="297.5" y="-235.8" font-family="Times,serif" font-size="14.00" fill="#000000">SQL/Flow program</text>
</g>
<!-- Argo -->
<g id="node9" class="node">
<title>Argo</title>
<polygon fill="none" stroke="#000000" points="332,-127 123,-127 123,-89 332,-89 332,-127"/>
<text text-anchor="middle" x="227.5" y="-111.8" font-family="Times,serif" font-size="14.00" fill="#000000">Tekton on Kubernetes</text>
<text text-anchor="middle" x="227.5" y="-96.8" font-family="Times,serif" font-size="14.00" fill="#000000">(each workflow step is a container)</text>
</g>
<!-- SQLFlow&#45;&gt;Argo -->
<g id="edge6" class="edge">
<title>SQLFlow&#45;&gt;Argo</title>
<path fill="none" stroke="#000000" d="M283.7888,-177.7663C273.8063,-165.3937 260.4377,-148.8242 249.2338,-134.9376"/>
<polygon fill="#000000" stroke="#000000" points="251.9324,-132.7085 242.9292,-127.1235 246.4845,-137.104 251.9324,-132.7085"/>
<text text-anchor="middle" x="311" y="-148.8" font-family="Times,serif" font-size="14.00" fill="#000000">Argo workflow</text>
</g>
<!-- DBMS -->
<g id="node11" class="node">
<title>DBMS</title>
<polygon fill="none" stroke="#000000" points="474,-38 263,-38 263,0 474,0 474,-38"/>
<text text-anchor="middle" x="368.5" y="-22.8" font-family="Times,serif" font-size="14.00" fill="#000000">database system</text>
<text text-anchor="middle" x="368.5" y="-7.8" font-family="Times,serif" font-size="14.00" fill="#000000">(Hive, MySQL, MaxCompute, etc)</text>
</g>
<!-- SQLFlow&#45;&gt;DBMS -->
<g id="edge9" class="edge">
<title>SQLFlow&#45;&gt;DBMS</title>
<path fill="none" stroke="#000000" d="M336.9702,-177.9414C343.8258,-173.0508 350.156,-167.0978 354.5,-160 375.2007,-126.1766 375.3822,-79.0408 372.6782,-48.77"/>
<polygon fill="#000000" stroke="#000000" points="376.1176,-48.0123 371.584,-38.4365 369.1565,-48.7495 376.1176,-48.0123"/>
<text text-anchor="middle" x="425.5" y="-104.3" font-family="Times,serif" font-size="14.00" fill="#000000">verify data schema</text>
</g>
<!-- AI -->
<g id="node10" class="node">
<title>AI</title>
<polygon fill="none" stroke="#000000" points="245,-38 0,-38 0,0 245,0 245,-38"/>
<text text-anchor="middle" x="122.5" y="-22.8" font-family="Times,serif" font-size="14.00" fill="#000000">AI engine</text>
<text text-anchor="middle" x="122.5" y="-7.8" font-family="Times,serif" font-size="14.00" fill="#000000">(Alibaba PAI, KubeFlow+Kuberntes, etc)</text>
</g>
<!-- Argo&#45;&gt;AI -->
<g id="edge8" class="edge">
<title>Argo&#45;&gt;AI</title>
<path fill="none" stroke="#000000" d="M150.7238,-88.7858C142.6347,-84.095 135.2727,-78.2595 129.5,-71 124.3974,-64.5832 122.0174,-56.2512 121.0763,-48.1437"/>
<polygon fill="#000000" stroke="#000000" points="124.5716,-47.9602 120.5572,-38.1554 117.5811,-48.3236 124.5716,-47.9602"/>
<text text-anchor="middle" x="168" y="-59.8" font-family="Times,serif" font-size="14.00" fill="#000000">submit AI job</text>
</g>
<!-- Argo&#45;&gt;DBMS -->
<g id="edge7" class="edge">
<title>Argo&#45;&gt;DBMS</title>
<path fill="none" stroke="#000000" d="M223.5196,-88.7325C222.4428,-77.9766 223.1928,-64.9766 230.5,-56 235.0234,-50.4431 244.5336,-45.51 256.5493,-41.202"/>
<polygon fill="#000000" stroke="#000000" points="257.7812,-44.4813 266.1851,-38.0296 255.5921,-37.8324 257.7812,-44.4813"/>
<text text-anchor="middle" x="292.5" y="-59.8" font-family="Times,serif" font-size="14.00" fill="#000000">submit SQL statement</text>
</g>
</g>
</svg>
