<?xml version="1.0" encoding="UTF-8" standalone="no"?>
<!DOCTYPE svg PUBLIC "-//W3C//DTD SVG 1.1//EN"
 "http://www.w3.org/Graphics/SVG/1.1/DTD/svg11.dtd">
<!-- Generated by graphviz version 2.40.1 (20161225.0304)
 -->
<!-- Title: G Pages: 1 -->
<svg width="539pt" height="748pt"
 viewBox="0.00 0.00 539.00 748.00" xmlns="http://www.w3.org/2000/svg" xmlns:xlink="http://www.w3.org/1999/xlink">
<g id="graph0" class="graph" transform="scale(1 1) rotate(0) translate(4 744)">
<title>G</title>
<polygon fill="#ffffff" stroke="transparent" points="-4,4 -4,-744 535,-744 535,4 -4,4"/>
<g id="clust3" class="cluster">
<title>cluster_vm</title>
<polygon fill="none" stroke="#000000" points="67,-8 67,-590 523,-590 523,-8 67,-8"/>
<text text-anchor="middle" x="295" y="-574.8" font-family="Times,serif" font-size="14.00" fill="#000000">VM</text>
</g>
<g id="clust4" class="cluster">
<title>cluster_container</title>
<polygon fill="none" stroke="#000000" points="75,-16 75,-559 261,-559 261,-16 75,-16"/>
<text text-anchor="middle" x="168" y="-543.8" font-family="Times,serif" font-size="14.00" fill="#000000">sqlflow/sqlflow:latest</text>
</g>
<!-- User1 -->
<g id="node1" class="node">
<title>User1</title>
<ellipse fill="none" stroke="#000000" cx="45" cy="-722" rx="27" ry="18"/>
<text text-anchor="middle" x="45" y="-718.3" font-family="Times,serif" font-size="14.00" fill="#000000">Lily</text>
</g>
<!-- Browser1 -->
<g id="node4" class="node">
<title>Browser1</title>
<polygon fill="none" stroke="#000000" points="90,-667 0,-667 0,-631 90,-631 90,-667"/>
<text text-anchor="middle" x="45" y="-645.3" font-family="Times,serif" font-size="14.00" fill="#000000">Web browser</text>
</g>
<!-- User1&#45;&gt;Browser1 -->
<g id="edge1" class="edge">
<title>User1&#45;&gt;Browser1</title>
<path fill="none" stroke="#000000" d="M45,-703.9551C45,-695.8828 45,-686.1764 45,-677.1817"/>
<polygon fill="#000000" stroke="#000000" points="48.5001,-677.0903 45,-667.0904 41.5001,-677.0904 48.5001,-677.0903"/>
</g>
<!-- User2 -->
<g id="node2" class="node">
<title>User2</title>
<ellipse fill="none" stroke="#000000" cx="160" cy="-722" rx="27" ry="18"/>
<text text-anchor="middle" x="160" y="-718.3" font-family="Times,serif" font-size="14.00" fill="#000000">Bob</text>
</g>
<!-- Browser2 -->
<g id="node5" class="node">
<title>Browser2</title>
<polygon fill="none" stroke="#000000" points="205,-667 115,-667 115,-631 205,-631 205,-667"/>
<text text-anchor="middle" x="160" y="-645.3" font-family="Times,serif" font-size="14.00" fill="#000000">Web browser</text>
</g>
<!-- User2&#45;&gt;Browser2 -->
<g id="edge2" class="edge">
<title>User2&#45;&gt;Browser2</title>
<path fill="none" stroke="#000000" d="M160,-703.9551C160,-695.8828 160,-686.1764 160,-677.1817"/>
<polygon fill="#000000" stroke="#000000" points="163.5001,-677.0903 160,-667.0904 156.5001,-677.0904 163.5001,-677.0903"/>
</g>
<!-- User3 -->
<g id="node3" class="node">
<title>User3</title>
<ellipse fill="none" stroke="#000000" cx="310" cy="-722" rx="27" ry="18"/>
<text text-anchor="middle" x="310" y="-718.3" font-family="Times,serif" font-size="14.00" fill="#000000">Eva</text>
</g>
<!-- Client -->
<g id="node6" class="node">
<title>Client</title>
<polygon fill="none" stroke="#000000" points="397,-667 223,-667 223,-631 397,-631 397,-667"/>
<text text-anchor="middle" x="310" y="-645.3" font-family="Times,serif" font-size="14.00" fill="#000000">sqlflow command&#45;line client</text>
</g>
<!-- User3&#45;&gt;Client -->
<g id="edge10" class="edge">
<title>User3&#45;&gt;Client</title>
<path fill="none" stroke="#000000" d="M310,-703.9551C310,-695.8828 310,-686.1764 310,-677.1817"/>
<polygon fill="#000000" stroke="#000000" points="313.5001,-677.0903 310,-667.0904 306.5001,-677.0904 313.5001,-677.0903"/>
</g>
<!-- Jupyter -->
<g id="node7" class="node">
<title>Jupyter</title>
<polygon fill="none" stroke="#000000" points="253,-528 83,-528 83,-490 253,-490 253,-528"/>
<text text-anchor="middle" x="168" y="-512.8" font-family="Times,serif" font-size="14.00" fill="#000000">Jupyter Notebook server +</text>
<text text-anchor="middle" x="168" y="-497.8" font-family="Times,serif" font-size="14.00" fill="#000000"> SQLFlow magic command</text>
</g>
<!-- Browser1&#45;&gt;Jupyter -->
<g id="edge3" class="edge">
<title>Browser1&#45;&gt;Jupyter</title>
<path fill="none" stroke="#000000" d="M43.322,-630.9491C43.1793,-620.6821 44.4293,-607.9321 50,-598 65.6639,-570.0727 94.0947,-548.2247 119.1241,-533.165"/>
<polygon fill="#000000" stroke="#000000" points="120.9184,-536.1704 127.809,-528.1224 117.4035,-530.1168 120.9184,-536.1704"/>
<text text-anchor="middle" x="104" y="-601.8" font-family="Times,serif" font-size="14.00" fill="#000000">SQL/Flow program</text>
</g>
<!-- Browser2&#45;&gt;Jupyter -->
<g id="edge4" class="edge">
<title>Browser2&#45;&gt;Jupyter</title>
<path fill="none" stroke="#000000" d="M161.0295,-630.9841C162.3691,-607.5404 164.7271,-566.2751 166.3257,-538.2994"/>
<polygon fill="#000000" stroke="#000000" points="169.8212,-538.4765 166.8975,-528.293 162.8326,-538.0771 169.8212,-538.4765"/>
</g>
<!-- SQLFlow -->
<g id="node8" class="node">
<title>SQLFlow</title>
<polygon fill="none" stroke="#000000" points="246.5,-311 139.5,-311 139.5,-275 246.5,-275 246.5,-311"/>
<text text-anchor="middle" x="193" y="-289.3" font-family="Times,serif" font-size="14.00" fill="#000000">SQLFlow server</text>
</g>
<!-- Client&#45;&gt;SQLFlow -->
<g id="edge11" class="edge">
<title>Client&#45;&gt;SQLFlow</title>
<path fill="none" stroke="#000000" d="M306.1827,-630.9725C300.8989,-604.4043 292,-553.1101 292,-509 292,-509 292,-509 292,-348.5 292,-327.9177 275.5172,-314.8916 256.0028,-306.6822"/>
<polygon fill="#000000" stroke="#000000" points="257.1486,-303.3739 246.5565,-303.1334 254.6867,-309.9267 257.1486,-303.3739"/>
<text text-anchor="middle" x="346" y="-422.8" font-family="Times,serif" font-size="14.00" fill="#000000">SQL/Flow program</text>
</g>
<!-- Jupyter&#45;&gt;SQLFlow -->
<g id="edge5" class="edge">
<title>Jupyter&#45;&gt;SQLFlow</title>
<path fill="none" stroke="#000000" d="M155.9611,-489.9007C150.3962,-479.2988 145,-465.6324 145,-452.5 145,-452.5 145,-452.5 145,-348.5 145,-336.9721 150.9977,-326.6592 158.7529,-318.1429"/>
<polygon fill="#000000" stroke="#000000" points="161.2142,-320.6313 165.9139,-311.1359 156.3185,-315.6281 161.2142,-320.6313"/>
<text text-anchor="middle" x="199" y="-389.8" font-family="Times,serif" font-size="14.00" fill="#000000">SQL/Flow program</text>
</g>
<!-- DBMS -->
<g id="node9" class="node">
<title>DBMS</title>
<polygon fill="none" stroke="#000000" points="209,-60 143,-60 143,-24 209,-24 209,-60"/>
<text text-anchor="middle" x="176" y="-38.3" font-family="Times,serif" font-size="14.00" fill="#000000">MySQL)</text>
</g>
<!-- SQLFlow&#45;&gt;DBMS -->
<g id="edge9" class="edge">
<title>SQLFlow&#45;&gt;DBMS</title>
<path fill="none" stroke="#000000" d="M168.5157,-274.8746C162.9791,-269.6781 157.6617,-263.6093 154,-257 148.1915,-246.5159 149,-242.4856 149,-230.5 149,-230.5 149,-230.5 149,-105.5 149,-93.5144 149.7614,-90.2111 154,-79 155.2537,-75.6839 156.7982,-72.3263 158.4827,-69.0565"/>
<polygon fill="#000000" stroke="#000000" points="161.6231,-70.6125 163.4753,-60.1808 155.5221,-67.1806 161.6231,-70.6125"/>
<text text-anchor="middle" x="201" y="-164.3" font-family="Times,serif" font-size="14.00" fill="#000000">verify data schema</text>
</g>
<!-- Argo -->
<g id="node10" class="node">
<title>Argo</title>
<polygon fill="none" stroke="#000000" points="393,-186 271,-186 271,-150 393,-150 393,-186"/>
<text text-anchor="middle" x="332" y="-164.3" font-family="Times,serif" font-size="14.00" fill="#000000">minikube + Tekton</text>
</g>
<!-- SQLFlow&#45;&gt;Argo -->
<g id="edge6" class="edge">
<title>SQLFlow&#45;&gt;Argo</title>
<path fill="none" stroke="#000000" d="M213.2118,-274.8239C237.1975,-253.254 277.32,-217.1727 304.2143,-192.9871"/>
<polygon fill="#000000" stroke="#000000" points="306.6685,-195.4872 311.7638,-186.198 301.9878,-190.2823 306.6685,-195.4872"/>
<text text-anchor="middle" x="311.5" y="-226.8" font-family="Times,serif" font-size="14.00" fill="#000000">Argo workflow</text>
</g>
<!-- Argo&#45;&gt;DBMS -->
<g id="edge7" class="edge">
<title>Argo&#45;&gt;DBMS</title>
<path fill="none" stroke="#000000" d="M289.0069,-149.8887C269.7574,-140.5544 247.5063,-127.9727 230,-113 215.1857,-100.3297 201.8843,-82.9538 192.1896,-68.5631"/>
<polygon fill="#000000" stroke="#000000" points="195.0347,-66.5186 186.6381,-60.0574 189.1728,-70.3445 195.0347,-66.5186"/>
<text text-anchor="middle" x="292" y="-101.8" font-family="Times,serif" font-size="14.00" fill="#000000">submit SQL statement</text>
</g>
<!-- AI -->
<g id="node11" class="node">
<title>AI</title>
<polygon fill="none" stroke="#000000" points="514.5,-61 269.5,-61 269.5,-23 514.5,-23 514.5,-61"/>
<text text-anchor="middle" x="392" y="-45.8" font-family="Times,serif" font-size="14.00" fill="#000000">AI engine</text>
<text text-anchor="middle" x="392" y="-30.8" font-family="Times,serif" font-size="14.00" fill="#000000">(Alibaba PAI, KubeFlow+Kuberntes, etc)</text>
</g>
<!-- Argo&#45;&gt;AI -->
<g id="edge8" class="edge">
<title>Argo&#45;&gt;AI</title>
<path fill="none" stroke="#000000" d="M340.5965,-149.9473C350.4943,-129.1621 366.8776,-94.757 378.4854,-70.3807"/>
<polygon fill="#000000" stroke="#000000" points="381.6898,-71.7922 382.8291,-61.2588 375.3697,-68.7827 381.6898,-71.7922"/>
<text text-anchor="middle" x="402.5" y="-101.8" font-family="Times,serif" font-size="14.00" fill="#000000">submit AI job</text>
</g>
</g>
</svg>
