<?xml version="1.0" encoding="UTF-8" standalone="no"?>
<!DOCTYPE svg PUBLIC "-//W3C//DTD SVG 1.1//EN"
 "http://www.w3.org/Graphics/SVG/1.1/DTD/svg11.dtd">
<!-- Generated by graphviz version 2.42.3 (20191010.1750)
 -->
<!-- Title: G Pages: 1 -->
<svg width="609pt" height="555pt"
 viewBox="0.00 0.00 608.96 555.00" xmlns="http://www.w3.org/2000/svg" xmlns:xlink="http://www.w3.org/1999/xlink">
<g id="graph0" class="graph" transform="scale(1 1) rotate(0) translate(4 551)">
<title>G</title>
<polygon fill="white" stroke="transparent" points="-4,4 -4,-551 604.96,-551 604.96,4 -4,4"/>
<g id="clust3" class="cluster">
<title>cluster_vm</title>
<polygon fill="none" stroke="black" points="8,-8 8,-398 458,-398 458,-8 8,-8"/>
<text text-anchor="middle" x="233" y="-382.8" font-family="Times,serif" font-size="14.00">VM</text>
</g>
<g id="clust4" class="cluster">
<title>cluster_container</title>
<polygon fill="none" stroke="black" points="128,-208 128,-368 450,-368 450,-208 128,-208"/>
<text text-anchor="middle" x="289" y="-352.8" font-family="Times,serif" font-size="14.00">sqlflow/sqlflow:latest</text>
</g>
<g id="clust5" class="cluster">
<title>cluster_minikube</title>
<polygon fill="none" stroke="black" points="312,-16 312,-176 450,-176 450,-16 312,-16"/>
<text text-anchor="middle" x="381" y="-160.8" font-family="Times,serif" font-size="14.00">minikube</text>
</g>
<!-- User1 -->
<g id="node1" class="node">
<title>User1</title>
<ellipse fill="none" stroke="black" cx="556" cy="-529" rx="27" ry="18"/>
<text text-anchor="middle" x="556" y="-524.8" font-family="Times,serif" font-size="14.00">Lily</text>
</g>
<!-- Browser1 -->
<g id="node4" class="node">
<title>Browser1</title>
<polygon fill="none" stroke="black" points="600.91,-474 511.09,-474 511.09,-438 600.91,-438 600.91,-474"/>
<text text-anchor="middle" x="556" y="-451.8" font-family="Times,serif" font-size="14.00">Web browser</text>
</g>
<!-- User1&#45;&gt;Browser1 -->
<g id="edge1" class="edge">
<title>User1&#45;&gt;Browser1</title>
<path fill="none" stroke="black" d="M556,-510.81C556,-502.79 556,-493.05 556,-484.07"/>
<polygon fill="black" stroke="black" points="559.5,-484.03 556,-474.03 552.5,-484.03 559.5,-484.03"/>
</g>
<!-- User2 -->
<g id="node2" class="node">
<title>User2</title>
<ellipse fill="none" stroke="black" cx="254" cy="-529" rx="27" ry="18"/>
<text text-anchor="middle" x="254" y="-524.8" font-family="Times,serif" font-size="14.00">Bob</text>
</g>
<!-- Browser2 -->
<g id="node5" class="node">
<title>Browser2</title>
<polygon fill="none" stroke="black" points="298.91,-474 209.09,-474 209.09,-438 298.91,-438 298.91,-474"/>
<text text-anchor="middle" x="254" y="-451.8" font-family="Times,serif" font-size="14.00">Web browser</text>
</g>
<!-- User2&#45;&gt;Browser2 -->
<g id="edge2" class="edge">
<title>User2&#45;&gt;Browser2</title>
<path fill="none" stroke="black" d="M254,-510.81C254,-502.79 254,-493.05 254,-484.07"/>
<polygon fill="black" stroke="black" points="257.5,-484.03 254,-474.03 250.5,-484.03 257.5,-484.03"/>
</g>
<!-- User3 -->
<g id="node3" class="node">
<title>User3</title>
<ellipse fill="none" stroke="black" cx="405" cy="-529" rx="27" ry="18"/>
<text text-anchor="middle" x="405" y="-524.8" font-family="Times,serif" font-size="14.00">Eva</text>
</g>
<!-- Client -->
<g id="node6" class="node">
<title>Client</title>
<polygon fill="none" stroke="black" points="493.19,-474 316.81,-474 316.81,-438 493.19,-438 493.19,-474"/>
<text text-anchor="middle" x="405" y="-451.8" font-family="Times,serif" font-size="14.00">sqlflow command&#45;line client</text>
</g>
<!-- User3&#45;&gt;Client -->
<g id="edge14" class="edge">
<title>User3&#45;&gt;Client</title>
<path fill="none" stroke="black" d="M405,-510.81C405,-502.79 405,-493.05 405,-484.07"/>
<polygon fill="black" stroke="black" points="408.5,-484.03 405,-474.03 401.5,-484.03 408.5,-484.03"/>
</g>
<!-- Jupyter -->
<g id="node9" class="node">
<title>Jupyter</title>
<polygon fill="none" stroke="black" points="441.65,-338 270.35,-338 270.35,-302 441.65,-302 441.65,-338"/>
<text text-anchor="middle" x="356" y="-322.8" font-family="Times,serif" font-size="14.00">Jupyter Notebook server +</text>
<text text-anchor="middle" x="356" y="-308.8" font-family="Times,serif" font-size="14.00"> SQLFlow magic command</text>
</g>
<!-- Browser1&#45;&gt;Jupyter -->
<g id="edge3" class="edge">
<title>Browser1&#45;&gt;Jupyter</title>
<path fill="none" stroke="black" d="M523.35,-437.87C503.47,-427.09 477.79,-412.5 456,-398 430.94,-381.33 403.98,-360.37 384.37,-344.54"/>
<polygon fill="black" stroke="black" points="386.42,-341.69 376.45,-338.09 382,-347.12 386.42,-341.69"/>
<text text-anchor="middle" x="545.03" y="-408.8" font-family="Times,serif" font-size="14.00">SQL/Flow program</text>
</g>
<!-- Browser2&#45;&gt;Jupyter -->
<g id="edge4" class="edge">
<title>Browser2&#45;&gt;Jupyter</title>
<path fill="none" stroke="black" d="M267.13,-437.76C284.8,-414.54 316.37,-373.06 336.74,-346.31"/>
<polygon fill="black" stroke="black" points="339.65,-348.25 342.92,-338.18 334.08,-344.01 339.65,-348.25"/>
</g>
<!-- SQLFlow -->
<g id="node10" class="node">
<title>SQLFlow</title>
<polygon fill="none" stroke="black" points="393.43,-252 284.57,-252 284.57,-216 393.43,-216 393.43,-252"/>
<text text-anchor="middle" x="339" y="-229.8" font-family="Times,serif" font-size="14.00">SQLFlow server</text>
</g>
<!-- Client&#45;&gt;SQLFlow -->
<g id="edge15" class="edge">
<title>Client&#45;&gt;SQLFlow</title>
<path fill="none" stroke="black" d="M423.39,-437.8C433.35,-427.32 444.85,-413.07 451,-398 472.58,-345.14 496.41,-315.57 462,-270 454.38,-259.91 429.17,-251.86 403.55,-246.05"/>
<polygon fill="black" stroke="black" points="404.26,-242.62 393.74,-243.93 402.78,-249.46 404.26,-242.62"/>
<text text-anchor="middle" x="534.03" y="-315.8" font-family="Times,serif" font-size="14.00">SQL/Flow program</text>
</g>
<!-- ModelZoo -->
<g id="node11" class="node">
<title>ModelZoo</title>
<polygon fill="none" stroke="black" points="252.3,-338 135.7,-338 135.7,-302 252.3,-302 252.3,-338"/>
<text text-anchor="middle" x="194" y="-315.8" font-family="Times,serif" font-size="14.00">Model Zoo server</text>
</g>
<!-- Client&#45;&gt;ModelZoo -->
<g id="edge16" class="edge">
<title>Client&#45;&gt;ModelZoo</title>
<path fill="none" stroke="black" d="M343.62,-437.94C316.76,-428.71 285.8,-415.55 261,-398 241.17,-383.97 223.36,-362.88 211.1,-346.32"/>
<polygon fill="black" stroke="black" points="213.89,-344.21 205.21,-338.13 208.21,-348.29 213.89,-344.21"/>
<text text-anchor="middle" x="333.74" y="-408.8" font-family="Times,serif" font-size="14.00">share models</text>
</g>
<!-- DockerRegistry -->
<g id="node7" class="node">
<title>DockerRegistry</title>
<polygon fill="none" stroke="black" points="119.97,-252 16.03,-252 16.03,-216 119.97,-216 119.97,-252"/>
<text text-anchor="middle" x="68" y="-229.8" font-family="Times,serif" font-size="14.00">Docker registry</text>
</g>
<!-- DockerRegistry&#45;&gt;SQLFlow -->
<g id="edge11" class="edge">
<title>DockerRegistry&#45;&gt;SQLFlow</title>
<path fill="none" stroke="black" d="M119.93,-234C163.89,-234 227.1,-234 274.33,-234"/>
<polygon fill="black" stroke="black" points="274.46,-237.5 284.46,-234 274.46,-230.5 274.46,-237.5"/>
<text text-anchor="middle" x="202.13" y="-239.8" font-family="Times,serif" font-size="14.00">use model definition</text>
</g>
<!-- DBMS -->
<g id="node8" class="node">
<title>DBMS</title>
<polygon fill="none" stroke="black" points="106.9,-60 45.1,-60 45.1,-24 106.9,-24 106.9,-60"/>
<text text-anchor="middle" x="76" y="-37.8" font-family="Times,serif" font-size="14.00">MySQL</text>
</g>
<!-- Jupyter&#45;&gt;SQLFlow -->
<g id="edge5" class="edge">
<title>Jupyter&#45;&gt;SQLFlow</title>
<path fill="none" stroke="black" d="M352.48,-301.6C350.16,-290.14 347.08,-274.93 344.45,-261.93"/>
<polygon fill="black" stroke="black" points="347.87,-261.2 342.46,-252.1 341.01,-262.59 347.87,-261.2"/>
<text text-anchor="middle" x="403.03" y="-272.8" font-family="Times,serif" font-size="14.00">SQL/Flow program</text>
</g>
<!-- SQLFlow&#45;&gt;DBMS -->
<g id="edge12" class="edge">
<title>SQLFlow&#45;&gt;DBMS</title>
<path fill="none" stroke="black" d="M300.1,-215.96C293.74,-213.25 287.2,-210.51 281,-208 184.34,-168.82 126.07,-184.03 77,-92 73.52,-85.47 72.29,-77.72 72.18,-70.33"/>
<polygon fill="black" stroke="black" points="75.68,-70.45 72.66,-60.29 68.68,-70.11 75.68,-70.45"/>
<text text-anchor="middle" x="231.59" y="-123.8" font-family="Times,serif" font-size="14.00">save trained models</text>
</g>
<!-- Argo -->
<g id="node12" class="node">
<title>Argo</title>
<polygon fill="none" stroke="black" points="374,-146 320,-146 320,-110 374,-110 374,-146"/>
<text text-anchor="middle" x="347" y="-123.8" font-family="Times,serif" font-size="14.00">Argo</text>
</g>
<!-- SQLFlow&#45;&gt;Argo -->
<g id="edge6" class="edge">
<title>SQLFlow&#45;&gt;Argo</title>
<path fill="none" stroke="black" d="M340.32,-215.83C341.57,-199.64 343.45,-175.13 344.9,-156.27"/>
<polygon fill="black" stroke="black" points="348.4,-156.44 345.68,-146.2 341.42,-155.9 348.4,-156.44"/>
<text text-anchor="middle" x="384.85" y="-186.8" font-family="Times,serif" font-size="14.00">Argo workflow</text>
</g>
<!-- ModelZoo&#45;&gt;DockerRegistry -->
<g id="edge10" class="edge">
<title>ModelZoo&#45;&gt;DockerRegistry</title>
<path fill="none" stroke="black" d="M135.74,-313.78C95.67,-308.84 47.48,-299.77 34.8,-284 28.72,-276.43 31.65,-267.77 37.77,-259.86"/>
<polygon fill="black" stroke="black" points="40.55,-262 44.73,-252.27 35.4,-257.27 40.55,-262"/>
<text text-anchor="middle" x="97.6" y="-272.8" font-family="Times,serif" font-size="14.00">share model definition</text>
</g>
<!-- ModelZoo&#45;&gt;DBMS -->
<g id="edge13" class="edge">
<title>ModelZoo&#45;&gt;DBMS</title>
<path fill="none" stroke="black" d="M188.74,-301.81C180.27,-277.14 161.23,-232.02 129,-208 114.01,-196.83 100.96,-211.62 88.15,-198 55.97,-163.79 61.92,-104.48 69.04,-69.99"/>
<polygon fill="black" stroke="black" points="72.47,-70.66 71.24,-60.14 65.64,-69.13 72.47,-70.66"/>
<text text-anchor="middle" x="146.92" y="-186.8" font-family="Times,serif" font-size="14.00">share trained models</text>
</g>
<!-- Argo&#45;&gt;DBMS -->
<g id="edge7" class="edge">
<title>Argo&#45;&gt;DBMS</title>
<path fill="none" stroke="black" d="M319.89,-111.32C318.59,-110.83 317.29,-110.39 316,-110 267.58,-95.53 128.19,-124.27 89.3,-92 82.81,-86.62 79.31,-78.42 77.48,-70.26"/>
<polygon fill="black" stroke="black" points="80.91,-69.52 75.94,-60.16 73.99,-70.57 80.91,-69.52"/>
<text text-anchor="middle" x="152.35" y="-80.8" font-family="Times,serif" font-size="14.00">submit SQL statement</text>
</g>
<!-- Argo&#45;&gt;DBMS -->
<g id="edge9" class="edge">
<title>Argo&#45;&gt;DBMS</title>
<path fill="none" stroke="black" d="M319.78,-111.63C318.52,-111.06 317.25,-110.51 316,-110 288.34,-98.75 279.66,-101.26 251.28,-92 234.45,-86.51 230.89,-83.29 214,-78 181.79,-67.9 144.68,-58.62 117.06,-52.15"/>
<polygon fill="black" stroke="black" points="117.5,-48.66 106.97,-49.82 115.92,-55.48 117.5,-48.66"/>
<text text-anchor="middle" x="303.86" y="-80.8" font-family="Times,serif" font-size="14.00">verify data schema</text>
</g>
<!-- AI -->
<g id="node13" class="node">
<title>AI</title>
<polygon fill="none" stroke="black" points="441.84,-60 320.16,-60 320.16,-24 441.84,-24 441.84,-60"/>
<text text-anchor="middle" x="381" y="-44.8" font-family="Times,serif" font-size="14.00">AI engine:</text>
<text text-anchor="middle" x="381" y="-30.8" font-family="Times,serif" font-size="14.00">container&#45;local run</text>
</g>
<!-- Argo&#45;&gt;AI -->
<g id="edge8" class="edge">
<title>Argo&#45;&gt;AI</title>
<path fill="none" stroke="black" d="M354.04,-109.6C358.73,-98.03 364.96,-82.62 370.26,-69.54"/>
<polygon fill="black" stroke="black" points="373.57,-70.68 374.08,-60.1 367.08,-68.05 373.57,-70.68"/>
<text text-anchor="middle" x="404.51" y="-80.8" font-family="Times,serif" font-size="14.00">submit AI job</text>
</g>
</g>
</svg>
