<?xml version="1.0" encoding="UTF-8" standalone="no"?>
<!DOCTYPE svg PUBLIC "-//W3C//DTD SVG 1.1//EN"
 "http://www.w3.org/Graphics/SVG/1.1/DTD/svg11.dtd">
<!-- Generated by graphviz version 2.40.1 (20161225.0304)
 -->
<!-- Title: G Pages: 1 -->
<svg width="616pt" height="471pt"
 viewBox="0.00 0.00 616.00 471.00" xmlns="http://www.w3.org/2000/svg" xmlns:xlink="http://www.w3.org/1999/xlink">
<g id="graph0" class="graph" transform="scale(1 1) rotate(0) translate(4 467)">
<title>G</title>
<polygon fill="#ffffff" stroke="transparent" points="-4,4 -4,-467 612,-467 612,4 -4,4"/>
<!-- User1 -->
<g id="node1" class="node">
<title>User1</title>
<ellipse fill="none" stroke="#000000" cx="59" cy="-445" rx="28.6953" ry="18"/>
<text text-anchor="middle" x="59" y="-441.3" font-family="Times,serif" font-size="14.00" fill="#000000">Lily</text>
</g>
<!-- Browser1 -->
<g id="node4" class="node">
<title>Browser1</title>
<polygon fill="none" stroke="#000000" points="114,-390 4,-390 4,-354 114,-354 114,-390"/>
<text text-anchor="middle" x="59" y="-368.3" font-family="Times,serif" font-size="14.00" fill="#000000">Web browser</text>
</g>
<!-- User1&#45;&gt;Browser1 -->
<g id="edge1" class="edge">
<title>User1&#45;&gt;Browser1</title>
<path fill="none" stroke="#000000" d="M59,-426.9551C59,-418.8828 59,-409.1764 59,-400.1817"/>
<polygon fill="#000000" stroke="#000000" points="62.5001,-400.0903 59,-390.0904 55.5001,-400.0904 62.5001,-400.0903"/>
</g>
<!-- User2 -->
<g id="node2" class="node">
<title>User2</title>
<ellipse fill="none" stroke="#000000" cx="199" cy="-445" rx="28.6953" ry="18"/>
<text text-anchor="middle" x="199" y="-441.3" font-family="Times,serif" font-size="14.00" fill="#000000">Bob</text>
</g>
<!-- Browser2 -->
<g id="node5" class="node">
<title>Browser2</title>
<polygon fill="none" stroke="#000000" points="254,-390 144,-390 144,-354 254,-354 254,-390"/>
<text text-anchor="middle" x="199" y="-368.3" font-family="Times,serif" font-size="14.00" fill="#000000">Web browser</text>
</g>
<!-- User2&#45;&gt;Browser2 -->
<g id="edge2" class="edge">
<title>User2&#45;&gt;Browser2</title>
<path fill="none" stroke="#000000" d="M199,-426.9551C199,-418.8828 199,-409.1764 199,-400.1817"/>
<polygon fill="#000000" stroke="#000000" points="202.5001,-400.0903 199,-390.0904 195.5001,-400.0904 202.5001,-400.0903"/>
</g>
<!-- User3 -->
<g id="node3" class="node">
<title>User3</title>
<ellipse fill="none" stroke="#000000" cx="381" cy="-445" rx="28.6953" ry="18"/>
<text text-anchor="middle" x="381" y="-441.3" font-family="Times,serif" font-size="14.00" fill="#000000">Eva</text>
</g>
<!-- Client -->
<g id="node6" class="node">
<title>Client</title>
<polygon fill="none" stroke="#000000" points="490,-390 272,-390 272,-354 490,-354 490,-390"/>
<text text-anchor="middle" x="381" y="-368.3" font-family="Times,serif" font-size="14.00" fill="#000000">sqlflow command&#45;line client</text>
</g>
<!-- User3&#45;&gt;Client -->
<g id="edge10" class="edge">
<title>User3&#45;&gt;Client</title>
<path fill="none" stroke="#000000" d="M381,-426.9551C381,-418.8828 381,-409.1764 381,-400.1817"/>
<polygon fill="#000000" stroke="#000000" points="384.5001,-400.0903 381,-390.0904 377.5001,-400.0904 384.5001,-400.0903"/>
</g>
<!-- Jupyter -->
<g id="node7" class="node">
<title>Jupyter</title>
<polygon fill="none" stroke="#000000" points="316.5,-303 105.5,-303 105.5,-265 316.5,-265 316.5,-303"/>
<text text-anchor="middle" x="211" y="-287.8" font-family="Times,serif" font-size="14.00" fill="#000000">Jupyter Notebook server +</text>
<text text-anchor="middle" x="211" y="-272.8" font-family="Times,serif" font-size="14.00" fill="#000000"> SQLFlow magic command</text>
</g>
<!-- Browser1&#45;&gt;Jupyter -->
<g id="edge3" class="edge">
<title>Browser1&#45;&gt;Jupyter</title>
<path fill="none" stroke="#000000" d="M55.1111,-353.5439C53.9747,-342.883 54.6332,-329.8701 62,-321 67.5704,-314.2929 80.0246,-308.5974 95.4805,-303.8346"/>
<polygon fill="#000000" stroke="#000000" points="96.8007,-307.0977 105.4571,-300.9889 94.8806,-300.3662 96.8007,-307.0977"/>
<text text-anchor="middle" x="130.5" y="-324.8" font-family="Times,serif" font-size="14.00" fill="#000000">SQL/Flow program</text>
</g>
<!-- Browser2&#45;&gt;Jupyter -->
<g id="edge4" class="edge">
<title>Browser2&#45;&gt;Jupyter</title>
<path fill="none" stroke="#000000" d="M201.4864,-353.7663C203.079,-342.0875 205.1815,-326.6692 207.0048,-313.2978"/>
<polygon fill="#000000" stroke="#000000" points="210.5089,-313.5047 208.3922,-303.1235 203.5731,-312.5589 210.5089,-313.5047"/>
</g>
<!-- SQLFlow -->
<g id="node8" class="node">
<title>SQLFlow</title>
<polygon fill="none" stroke="#000000" points="362.5,-214 229.5,-214 229.5,-178 362.5,-178 362.5,-214"/>
<text text-anchor="middle" x="296" y="-192.3" font-family="Times,serif" font-size="14.00" fill="#000000">SQLFlow server</text>
</g>
<!-- Client&#45;&gt;SQLFlow -->
<g id="edge11" class="edge">
<title>Client&#45;&gt;SQLFlow</title>
<path fill="none" stroke="#000000" d="M383.412,-353.8268C386.2163,-325.2314 387.6015,-269.1682 362,-232 358.9771,-227.6114 355.2398,-223.707 351.0926,-220.2439"/>
<polygon fill="#000000" stroke="#000000" points="352.8343,-217.1822 342.6926,-214.1169 348.7092,-222.8376 352.8343,-217.1822"/>
<text text-anchor="middle" x="451.5" y="-280.3" font-family="Times,serif" font-size="14.00" fill="#000000">SQL/Flow program</text>
</g>
<!-- Jupyter&#45;&gt;SQLFlow -->
<g id="edge5" class="edge">
<title>Jupyter&#45;&gt;SQLFlow</title>
<path fill="none" stroke="#000000" d="M212.3406,-264.9661C213.9542,-254.2882 217.4542,-241.2882 225,-232 228.7404,-227.3959 233.2224,-223.3237 238.0923,-219.7345"/>
<polygon fill="#000000" stroke="#000000" points="240.162,-222.5623 246.5915,-214.1413 236.3139,-216.7149 240.162,-222.5623"/>
<text text-anchor="middle" x="293.5" y="-235.8" font-family="Times,serif" font-size="14.00" fill="#000000">SQL/Flow program</text>
</g>
<!-- Argo -->
<g id="node9" class="node">
<title>Argo</title>
<polygon fill="none" stroke="#000000" points="430.5,-127 161.5,-127 161.5,-89 430.5,-89 430.5,-127"/>
<text text-anchor="middle" x="296" y="-111.8" font-family="Times,serif" font-size="14.00" fill="#000000">Tekton on Kubernetes</text>
<text text-anchor="middle" x="296" y="-96.8" font-family="Times,serif" font-size="14.00" fill="#000000">(each workflow step is a container)</text>
</g>
<!-- SQLFlow&#45;&gt;Argo -->
<g id="edge6" class="edge">
<title>SQLFlow&#45;&gt;Argo</title>
<path fill="none" stroke="#000000" d="M296,-177.7663C296,-166.0875 296,-150.6692 296,-137.2978"/>
<polygon fill="#000000" stroke="#000000" points="299.5001,-137.1235 296,-127.1235 292.5001,-137.1235 299.5001,-137.1235"/>
<text text-anchor="middle" x="349" y="-148.8" font-family="Times,serif" font-size="14.00" fill="#000000">Argo workflow</text>
</g>
<!-- AI -->
<g id="node10" class="node">
<title>AI</title>
<polygon fill="none" stroke="#000000" points="308,-38 0,-38 0,0 308,0 308,-38"/>
<text text-anchor="middle" x="154" y="-22.8" font-family="Times,serif" font-size="14.00" fill="#000000">AI engine</text>
<text text-anchor="middle" x="154" y="-7.8" font-family="Times,serif" font-size="14.00" fill="#000000">(Alibaba PAI, KubeFlow+Kuberntes, etc)</text>
</g>
<!-- Argo&#45;&gt;AI -->
<g id="edge8" class="edge">
<title>Argo&#45;&gt;AI</title>
<path fill="none" stroke="#000000" d="M205.1341,-88.9425C194.916,-84.2255 185.2377,-78.341 177,-71 170.1139,-64.8635 165.1905,-56.2792 161.7144,-47.8514"/>
<polygon fill="#000000" stroke="#000000" points="164.9233,-46.4294 158.2678,-38.1859 158.33,-48.7805 164.9233,-46.4294"/>
<text text-anchor="middle" x="225.5" y="-59.8" font-family="Times,serif" font-size="14.00" fill="#000000">submit AI job</text>
</g>
<!-- DBMS -->
<g id="node11" class="node">
<title>DBMS</title>
<polygon fill="none" stroke="#000000" points="586,-38 326,-38 326,0 586,0 586,-38"/>
<text text-anchor="middle" x="456" y="-22.8" font-family="Times,serif" font-size="14.00" fill="#000000">database system</text>
<text text-anchor="middle" x="456" y="-7.8" font-family="Times,serif" font-size="14.00" fill="#000000">(Hive, MySQL, MaxCompute, etc)</text>
</g>
<!-- Argo&#45;&gt;DBMS -->
<g id="edge7" class="edge">
<title>Argo&#45;&gt;DBMS</title>
<path fill="none" stroke="#000000" d="M391.0277,-88.9169C410.0294,-83.6461 426.4695,-77.555 434,-71 440.9617,-64.9401 445.7784,-56.3036 449.0863,-47.8055"/>
<polygon fill="#000000" stroke="#000000" points="452.4938,-48.649 452.3145,-38.0557 445.8486,-46.4487 452.4938,-48.649"/>
<text text-anchor="middle" x="526.5" y="-59.8" font-family="Times,serif" font-size="14.00" fill="#000000">submit SQL statement</text>
</g>
<!-- Argo&#45;&gt;DBMS -->
<g id="edge9" class="edge">
<title>Argo&#45;&gt;DBMS</title>
<path fill="none" stroke="#000000" d="M289.0834,-88.7839C286.5279,-78.0452 285.7779,-65.0452 293,-56 297.5361,-50.3188 306.5408,-45.4442 318.091,-41.2779"/>
<polygon fill="#000000" stroke="#000000" points="319.4437,-44.5181 327.8631,-38.0867 317.2706,-37.864 319.4437,-44.5181"/>
<text text-anchor="middle" x="361.5" y="-59.8" font-family="Times,serif" font-size="14.00" fill="#000000">verify data schema</text>
</g>
</g>
</svg>
