<?xml version="1.0" encoding="UTF-8" standalone="no"?>
<!DOCTYPE svg PUBLIC "-//W3C//DTD SVG 1.1//EN"
 "http://www.w3.org/Graphics/SVG/1.1/DTD/svg11.dtd">
<!-- Generated by graphviz version 2.42.3 (20191010.1750)
 -->
<!-- Title: G Pages: 1 -->
<svg width="635pt" height="547pt"
 viewBox="0.00 0.00 634.73 547.00" xmlns="http://www.w3.org/2000/svg" xmlns:xlink="http://www.w3.org/1999/xlink">
<g id="graph0" class="graph" transform="scale(1 1) rotate(0) translate(4 543)">
<title>G</title>
<polygon fill="white" stroke="transparent" points="-4,4 -4,-543 630.73,-543 630.73,4 -4,4"/>
<!-- User1 -->
<g id="node1" class="node">
<title>User1</title>
<ellipse fill="none" stroke="black" cx="349.1" cy="-521" rx="27" ry="18"/>
<text text-anchor="middle" x="349.1" y="-516.8" font-family="Times,serif" font-size="14.00">Lily</text>
</g>
<!-- Browser1 -->
<g id="node4" class="node">
<title>Browser1</title>
<polygon fill="none" stroke="black" points="394.01,-466 304.19,-466 304.19,-430 394.01,-430 394.01,-466"/>
<text text-anchor="middle" x="349.1" y="-443.8" font-family="Times,serif" font-size="14.00">Web browser</text>
</g>
<!-- User1&#45;&gt;Browser1 -->
<g id="edge1" class="edge">
<title>User1&#45;&gt;Browser1</title>
<path fill="none" stroke="black" d="M349.1,-502.81C349.1,-494.79 349.1,-485.05 349.1,-476.07"/>
<polygon fill="black" stroke="black" points="352.6,-476.03 349.1,-466.03 345.6,-476.03 352.6,-476.03"/>
</g>
<!-- User2 -->
<g id="node2" class="node">
<title>User2</title>
<ellipse fill="none" stroke="black" cx="474.1" cy="-521" rx="27" ry="18"/>
<text text-anchor="middle" x="474.1" y="-516.8" font-family="Times,serif" font-size="14.00">Bob</text>
</g>
<!-- Browser2 -->
<g id="node5" class="node">
<title>Browser2</title>
<polygon fill="none" stroke="black" points="519.01,-466 429.19,-466 429.19,-430 519.01,-430 519.01,-466"/>
<text text-anchor="middle" x="474.1" y="-443.8" font-family="Times,serif" font-size="14.00">Web browser</text>
</g>
<!-- User2&#45;&gt;Browser2 -->
<g id="edge2" class="edge">
<title>User2&#45;&gt;Browser2</title>
<path fill="none" stroke="black" d="M474.1,-502.81C474.1,-494.79 474.1,-485.05 474.1,-476.07"/>
<polygon fill="black" stroke="black" points="477.6,-476.03 474.1,-466.03 470.6,-476.03 477.6,-476.03"/>
</g>
<!-- User3 -->
<g id="node3" class="node">
<title>User3</title>
<ellipse fill="none" stroke="black" cx="88.1" cy="-521" rx="27" ry="18"/>
<text text-anchor="middle" x="88.1" y="-516.8" font-family="Times,serif" font-size="14.00">Eva</text>
</g>
<!-- Client -->
<g id="node6" class="node">
<title>Client</title>
<polygon fill="none" stroke="black" points="176.29,-466 -0.1,-466 -0.1,-430 176.29,-430 176.29,-466"/>
<text text-anchor="middle" x="88.1" y="-443.8" font-family="Times,serif" font-size="14.00">sqlflow command&#45;line client</text>
</g>
<!-- User3&#45;&gt;Client -->
<g id="edge14" class="edge">
<title>User3&#45;&gt;Client</title>
<path fill="none" stroke="black" d="M88.1,-502.81C88.1,-494.79 88.1,-485.05 88.1,-476.07"/>
<polygon fill="black" stroke="black" points="91.6,-476.03 88.1,-466.03 84.6,-476.03 91.6,-476.03"/>
</g>
<!-- Jupyter -->
<g id="node7" class="node">
<title>Jupyter</title>
<polygon fill="none" stroke="black" points="461.75,-380 290.45,-380 290.45,-344 461.75,-344 461.75,-380"/>
<text text-anchor="middle" x="376.1" y="-364.8" font-family="Times,serif" font-size="14.00">Jupyter Notebook server +</text>
<text text-anchor="middle" x="376.1" y="-350.8" font-family="Times,serif" font-size="14.00"> SQLFlow magic command</text>
</g>
<!-- Browser1&#45;&gt;Jupyter -->
<g id="edge3" class="edge">
<title>Browser1&#45;&gt;Jupyter</title>
<path fill="none" stroke="black" d="M346.9,-429.77C346.29,-420.17 346.57,-408.14 350.04,-398 351.12,-394.85 352.6,-391.74 354.31,-388.77"/>
<polygon fill="black" stroke="black" points="357.32,-390.55 359.95,-380.29 351.5,-386.67 357.32,-390.55"/>
<text text-anchor="middle" x="405.12" y="-400.8" font-family="Times,serif" font-size="14.00">SQL/Flow program</text>
</g>
<!-- Browser2&#45;&gt;Jupyter -->
<g id="edge4" class="edge">
<title>Browser2&#45;&gt;Jupyter</title>
<path fill="none" stroke="black" d="M472.89,-429.79C471.34,-419.48 467.86,-406.72 460.1,-398 455.75,-393.12 450.62,-388.9 445.07,-385.26"/>
<polygon fill="black" stroke="black" points="446.46,-382.02 436.06,-380.01 442.93,-388.07 446.46,-382.02"/>
</g>
<!-- SQLFlow -->
<g id="node8" class="node">
<title>SQLFlow</title>
<polygon fill="none" stroke="black" points="388.53,-208 279.66,-208 279.66,-172 388.53,-172 388.53,-208"/>
<text text-anchor="middle" x="334.1" y="-185.8" font-family="Times,serif" font-size="14.00">SQLFlow server</text>
</g>
<!-- Client&#45;&gt;SQLFlow -->
<g id="edge15" class="edge">
<title>Client&#45;&gt;SQLFlow</title>
<path fill="none" stroke="black" d="M68.53,-429.98C40.57,-403.56 -4.66,-351.58 22.04,-312 36.62,-290.4 183.91,-239.68 270.83,-211.24"/>
<polygon fill="black" stroke="black" points="272.17,-214.49 280.59,-208.06 270,-207.83 272.17,-214.49"/>
<text text-anchor="middle" x="77.12" y="-314.8" font-family="Times,serif" font-size="14.00">SQL/Flow program</text>
</g>
<!-- ModelZoo -->
<g id="node9" class="node">
<title>ModelZoo</title>
<polygon fill="none" stroke="black" points="272.98,-380 45.22,-380 45.22,-344 272.98,-344 272.98,-380"/>
<text text-anchor="middle" x="159.1" y="-364.8" font-family="Times,serif" font-size="14.00">Model Zoo server</text>
<text text-anchor="middle" x="159.1" y="-350.8" font-family="Times,serif" font-size="14.00">(with MySQL to store relational data)</text>
</g>
<!-- Client&#45;&gt;ModelZoo -->
<g id="edge16" class="edge">
<title>Client&#45;&gt;ModelZoo</title>
<path fill="none" stroke="black" d="M102.81,-429.6C112.97,-417.58 126.63,-401.41 137.95,-388.02"/>
<polygon fill="black" stroke="black" points="140.86,-389.99 144.65,-380.1 135.52,-385.47 140.86,-389.99"/>
<text text-anchor="middle" x="225.49" y="-400.8" font-family="Times,serif" font-size="14.00">share models or use shared models</text>
</g>
<!-- Jupyter&#45;&gt;SQLFlow -->
<g id="edge5" class="edge">
<title>Jupyter&#45;&gt;SQLFlow</title>
<path fill="none" stroke="black" d="M376.84,-343.69C377.36,-317.31 375.97,-265.92 360.1,-226 358.8,-222.74 357.12,-219.5 355.23,-216.4"/>
<polygon fill="black" stroke="black" points="358.07,-214.36 349.54,-208.08 352.3,-218.31 358.07,-214.36"/>
<text text-anchor="middle" x="430.12" y="-271.8" font-family="Times,serif" font-size="14.00">SQL/Flow program</text>
</g>
<!-- Argo -->
<g id="node11" class="node">
<title>Argo</title>
<polygon fill="none" stroke="black" points="533.42,-122 320.78,-122 320.78,-86 533.42,-86 533.42,-122"/>
<text text-anchor="middle" x="427.1" y="-106.8" font-family="Times,serif" font-size="14.00">Tekton on Kubernetes</text>
<text text-anchor="middle" x="427.1" y="-92.8" font-family="Times,serif" font-size="14.00">(each workflow step is a container)</text>
</g>
<!-- SQLFlow&#45;&gt;Argo -->
<g id="edge6" class="edge">
<title>SQLFlow&#45;&gt;Argo</title>
<path fill="none" stroke="black" d="M353.37,-171.6C367.05,-159.24 385.59,-142.49 400.65,-128.88"/>
<polygon fill="black" stroke="black" points="403.09,-131.4 408.17,-122.1 398.4,-126.2 403.09,-131.4"/>
<text text-anchor="middle" x="429.94" y="-142.8" font-family="Times,serif" font-size="14.00">Argo workflow</text>
</g>
<!-- DBMS -->
<g id="node13" class="node">
<title>DBMS</title>
<polygon fill="none" stroke="black" points="315.34,-36 102.85,-36 102.85,0 315.34,0 315.34,-36"/>
<text text-anchor="middle" x="209.1" y="-20.8" font-family="Times,serif" font-size="14.00">database system</text>
<text text-anchor="middle" x="209.1" y="-6.8" font-family="Times,serif" font-size="14.00">(Hive, MySQL, MaxCompute, etc)</text>
</g>
<!-- SQLFlow&#45;&gt;DBMS -->
<g id="edge12" class="edge">
<title>SQLFlow&#45;&gt;DBMS</title>
<path fill="none" stroke="black" d="M279.52,-176.31C250.81,-166.56 218.09,-149.87 200.91,-122 186.85,-99.19 191.98,-67.94 198.7,-45.86"/>
<polygon fill="black" stroke="black" points="202.1,-46.72 201.94,-36.13 195.46,-44.51 202.1,-46.72"/>
<text text-anchor="middle" x="256.69" y="-99.8" font-family="Times,serif" font-size="14.00">save trained models</text>
</g>
<!-- DockerRegistry -->
<g id="node10" class="node">
<title>DockerRegistry</title>
<polygon fill="none" stroke="black" points="285.06,-294 181.13,-294 181.13,-258 285.06,-258 285.06,-294"/>
<text text-anchor="middle" x="233.1" y="-271.8" font-family="Times,serif" font-size="14.00">Docker registry</text>
</g>
<!-- ModelZoo&#45;&gt;DockerRegistry -->
<g id="edge10" class="edge">
<title>ModelZoo&#45;&gt;DockerRegistry</title>
<path fill="none" stroke="black" d="M174.43,-343.6C185.12,-331.46 199.53,-315.1 211.39,-301.64"/>
<polygon fill="black" stroke="black" points="214.05,-303.91 218.04,-294.1 208.8,-299.29 214.05,-303.91"/>
<text text-anchor="middle" x="268.36" y="-314.8" font-family="Times,serif" font-size="14.00">release model definition</text>
</g>
<!-- ModelZoo&#45;&gt;DBMS -->
<g id="edge13" class="edge">
<title>ModelZoo&#45;&gt;DBMS</title>
<path fill="none" stroke="black" d="M154.84,-343.75C151.05,-326.85 146.1,-300.32 146.1,-277 146.1,-277 146.1,-277 146.1,-103 146.1,-79.5 162.07,-58.37 177.93,-43.18"/>
<polygon fill="black" stroke="black" points="180.57,-45.52 185.64,-36.21 175.87,-40.32 180.57,-45.52"/>
<text text-anchor="middle" x="204.02" y="-185.8" font-family="Times,serif" font-size="14.00">share trained models</text>
</g>
<!-- DockerRegistry&#45;&gt;SQLFlow -->
<g id="edge11" class="edge">
<title>DockerRegistry&#45;&gt;SQLFlow</title>
<path fill="none" stroke="black" d="M233.73,-257.77C234.97,-247.45 238.1,-234.69 245.77,-226 252.49,-218.4 261.07,-212.43 270.24,-207.74"/>
<polygon fill="black" stroke="black" points="271.93,-210.82 279.56,-203.48 269.01,-204.46 271.93,-210.82"/>
<text text-anchor="middle" x="303.26" y="-228.8" font-family="Times,serif" font-size="14.00">use model definition</text>
</g>
<!-- AI -->
<g id="node12" class="node">
<title>AI</title>
<polygon fill="none" stroke="black" points="626.87,-36 377.32,-36 377.32,0 626.87,0 626.87,-36"/>
<text text-anchor="middle" x="502.1" y="-20.8" font-family="Times,serif" font-size="14.00">AI engine</text>
<text text-anchor="middle" x="502.1" y="-6.8" font-family="Times,serif" font-size="14.00">(Alibaba PAI, KubeFlow+Kuberntes, etc)</text>
</g>
<!-- Argo&#45;&gt;AI -->
<g id="edge8" class="edge">
<title>Argo&#45;&gt;AI</title>
<path fill="none" stroke="black" d="M459.43,-85.83C466.88,-80.81 474.31,-74.8 480.1,-68 485.62,-61.51 490,-53.4 493.35,-45.67"/>
<polygon fill="black" stroke="black" points="496.67,-46.8 497.06,-36.21 490.15,-44.25 496.67,-46.8"/>
<text text-anchor="middle" x="526.6" y="-56.8" font-family="Times,serif" font-size="14.00">submit AI job</text>
</g>
<!-- Argo&#45;&gt;DBMS -->
<g id="edge7" class="edge">
<title>Argo&#45;&gt;DBMS</title>
<path fill="none" stroke="black" d="M386.28,-85.89C374.77,-80.59 362.39,-74.45 351.4,-68 342.25,-62.64 341.63,-58.63 332.1,-54 320.32,-48.28 307.44,-43.33 294.6,-39.11"/>
<polygon fill="black" stroke="black" points="295.39,-35.69 284.8,-36.03 293.29,-42.37 295.39,-35.69"/>
<text text-anchor="middle" x="414.45" y="-56.8" font-family="Times,serif" font-size="14.00">submit SQL statement</text>
</g>
<!-- Argo&#45;&gt;DBMS -->
<g id="edge9" class="edge">
<title>Argo&#45;&gt;DBMS</title>
<path fill="none" stroke="black" d="M320.89,-87.31C273.13,-79.82 226.44,-71.7 222.37,-68 216.23,-62.41 212.81,-54.3 210.94,-46.28"/>
<polygon fill="black" stroke="black" points="214.39,-45.67 209.31,-36.37 207.48,-46.8 214.39,-45.67"/>
<text text-anchor="middle" x="275.96" y="-56.8" font-family="Times,serif" font-size="14.00">verify data schema</text>
</g>
</g>
</svg>
