<?xml version="1.0" encoding="UTF-8" standalone="no"?>
<!DOCTYPE svg PUBLIC "-//W3C//DTD SVG 1.1//EN"
 "http://www.w3.org/Graphics/SVG/1.1/DTD/svg11.dtd">
<!-- Generated by graphviz version 2.42.3 (20191010.1750)
 -->
<!-- Title: G Pages: 1 -->
<svg width="764pt" height="461pt"
 viewBox="0.00 0.00 763.59 461.00" xmlns="http://www.w3.org/2000/svg" xmlns:xlink="http://www.w3.org/1999/xlink">
<g id="graph0" class="graph" transform="scale(1 1) rotate(0) translate(4 457)">
<title>G</title>
<polygon fill="white" stroke="transparent" points="-4,4 -4,-457 759.59,-457 759.59,4 -4,4"/>
<!-- User1 -->
<g id="node1" class="node">
<title>User1</title>
<ellipse fill="none" stroke="black" cx="585.64" cy="-435" rx="27" ry="18"/>
<text text-anchor="middle" x="585.64" y="-430.8" font-family="Times,serif" font-size="14.00">Lily</text>
</g>
<!-- Browser1 -->
<g id="node4" class="node">
<title>Browser1</title>
<polygon fill="none" stroke="black" points="630.55,-380 540.73,-380 540.73,-344 630.55,-344 630.55,-380"/>
<text text-anchor="middle" x="585.64" y="-357.8" font-family="Times,serif" font-size="14.00">Web browser</text>
</g>
<!-- User1&#45;&gt;Browser1 -->
<g id="edge1" class="edge">
<title>User1&#45;&gt;Browser1</title>
<path fill="none" stroke="black" d="M585.64,-416.81C585.64,-408.79 585.64,-399.05 585.64,-390.07"/>
<polygon fill="black" stroke="black" points="589.14,-390.03 585.64,-380.03 582.14,-390.03 589.14,-390.03"/>
</g>
<!-- User2 -->
<g id="node2" class="node">
<title>User2</title>
<ellipse fill="none" stroke="black" cx="710.64" cy="-435" rx="27" ry="18"/>
<text text-anchor="middle" x="710.64" y="-430.8" font-family="Times,serif" font-size="14.00">Bob</text>
</g>
<!-- Browser2 -->
<g id="node5" class="node">
<title>Browser2</title>
<polygon fill="none" stroke="black" points="755.55,-380 665.73,-380 665.73,-344 755.55,-344 755.55,-380"/>
<text text-anchor="middle" x="710.64" y="-357.8" font-family="Times,serif" font-size="14.00">Web browser</text>
</g>
<!-- User2&#45;&gt;Browser2 -->
<g id="edge2" class="edge">
<title>User2&#45;&gt;Browser2</title>
<path fill="none" stroke="black" d="M710.64,-416.81C710.64,-408.79 710.64,-399.05 710.64,-390.07"/>
<polygon fill="black" stroke="black" points="714.14,-390.03 710.64,-380.03 707.14,-390.03 714.14,-390.03"/>
</g>
<!-- User3 -->
<g id="node3" class="node">
<title>User3</title>
<ellipse fill="none" stroke="black" cx="302.64" cy="-435" rx="27" ry="18"/>
<text text-anchor="middle" x="302.64" y="-430.8" font-family="Times,serif" font-size="14.00">Eva</text>
</g>
<!-- Client -->
<g id="node6" class="node">
<title>Client</title>
<polygon fill="none" stroke="black" points="390.83,-380 214.44,-380 214.44,-344 390.83,-344 390.83,-380"/>
<text text-anchor="middle" x="302.64" y="-357.8" font-family="Times,serif" font-size="14.00">sqlflow command&#45;line client</text>
</g>
<!-- User3&#45;&gt;Client -->
<g id="edge10" class="edge">
<title>User3&#45;&gt;Client</title>
<path fill="none" stroke="black" d="M302.64,-416.81C302.64,-408.79 302.64,-399.05 302.64,-390.07"/>
<polygon fill="black" stroke="black" points="306.14,-390.03 302.64,-380.03 299.14,-390.03 306.14,-390.03"/>
</g>
<!-- Jupyter -->
<g id="node7" class="node">
<title>Jupyter</title>
<polygon fill="none" stroke="black" points="671.29,-294 499.99,-294 499.99,-258 671.29,-258 671.29,-294"/>
<text text-anchor="middle" x="585.64" y="-278.8" font-family="Times,serif" font-size="14.00">Jupyter Notebook server +</text>
<text text-anchor="middle" x="585.64" y="-264.8" font-family="Times,serif" font-size="14.00"> SQLFlow magic command</text>
</g>
<!-- Browser1&#45;&gt;Jupyter -->
<g id="edge3" class="edge">
<title>Browser1&#45;&gt;Jupyter</title>
<path fill="none" stroke="black" d="M585.64,-343.6C585.64,-332.26 585.64,-317.23 585.64,-304.32"/>
<polygon fill="black" stroke="black" points="589.14,-304.1 585.64,-294.1 582.14,-304.1 589.14,-304.1"/>
<text text-anchor="middle" x="640.66" y="-314.8" font-family="Times,serif" font-size="14.00">SQL/Flow program</text>
</g>
<!-- Browser2&#45;&gt;Jupyter -->
<g id="edge4" class="edge">
<title>Browser2&#45;&gt;Jupyter</title>
<path fill="none" stroke="black" d="M709.7,-343.54C708.25,-333.14 704.78,-320.37 696.64,-312 691.76,-306.99 686.18,-302.69 680.16,-299.01"/>
<polygon fill="black" stroke="black" points="681.53,-295.77 671.08,-294.04 678.17,-301.91 681.53,-295.77"/>
</g>
<!-- SQLFlow -->
<g id="node8" class="node">
<title>SQLFlow</title>
<polygon fill="none" stroke="black" points="280.07,-208 171.2,-208 171.2,-172 280.07,-172 280.07,-208"/>
<text text-anchor="middle" x="225.64" y="-185.8" font-family="Times,serif" font-size="14.00">SQLFlow server</text>
</g>
<!-- Client&#45;&gt;SQLFlow -->
<g id="edge11" class="edge">
<title>Client&#45;&gt;SQLFlow</title>
<path fill="none" stroke="black" d="M268.82,-343.91C250.29,-332.53 229.03,-315.69 218.59,-294 207.09,-270.13 211.22,-239.49 216.76,-217.85"/>
<polygon fill="black" stroke="black" points="220.19,-218.59 219.54,-208.02 213.45,-216.69 220.19,-218.59"/>
<text text-anchor="middle" x="273.66" y="-271.8" font-family="Times,serif" font-size="14.00">SQL/Flow program</text>
</g>
<!-- ModelZoo -->
<g id="node9" class="node">
<title>ModelZoo</title>
<polygon fill="none" stroke="black" points="453.94,-294 337.33,-294 337.33,-258 453.94,-258 453.94,-294"/>
<text text-anchor="middle" x="395.64" y="-271.8" font-family="Times,serif" font-size="14.00">Model Zoo server</text>
</g>
<!-- Client&#45;&gt;ModelZoo -->
<g id="edge12" class="edge">
<title>Client&#45;&gt;ModelZoo</title>
<path fill="none" stroke="black" d="M321.91,-343.6C335.59,-331.24 354.13,-314.49 369.19,-300.88"/>
<polygon fill="black" stroke="black" points="371.64,-303.4 376.71,-294.1 366.94,-298.2 371.64,-303.4"/>
<text text-anchor="middle" x="453.03" y="-314.8" font-family="Times,serif" font-size="14.00">share models or use shared models</text>
</g>
<!-- Jupyter&#45;&gt;SQLFlow -->
<g id="edge5" class="edge">
<title>Jupyter&#45;&gt;SQLFlow</title>
<path fill="none" stroke="black" d="M512.35,-257.9C447.21,-242.7 352.89,-220.69 290.45,-206.12"/>
<polygon fill="black" stroke="black" points="290.86,-202.63 280.33,-203.76 289.27,-209.44 290.86,-202.63"/>
<text text-anchor="middle" x="482.66" y="-228.8" font-family="Times,serif" font-size="14.00">SQL/Flow program</text>
</g>
<!-- Argo -->
<g id="node10" class="node">
<title>Argo</title>
<polygon fill="none" stroke="black" points="331.96,-122 119.32,-122 119.32,-86 331.96,-86 331.96,-122"/>
<text text-anchor="middle" x="225.64" y="-106.8" font-family="Times,serif" font-size="14.00">Tekton on Kubernetes</text>
<text text-anchor="middle" x="225.64" y="-92.8" font-family="Times,serif" font-size="14.00">(each workflow step is a container)</text>
</g>
<!-- SQLFlow&#45;&gt;Argo -->
<g id="edge6" class="edge">
<title>SQLFlow&#45;&gt;Argo</title>
<path fill="none" stroke="black" d="M225.64,-171.6C225.64,-160.26 225.64,-145.23 225.64,-132.32"/>
<polygon fill="black" stroke="black" points="229.14,-132.1 225.64,-122.1 222.14,-132.1 229.14,-132.1"/>
<text text-anchor="middle" x="268.49" y="-142.8" font-family="Times,serif" font-size="14.00">Argo workflow</text>
</g>
<!-- AI -->
<g id="node11" class="node">
<title>AI</title>
<polygon fill="none" stroke="black" points="249.41,-36 -0.14,-36 -0.14,0 249.41,0 249.41,-36"/>
<text text-anchor="middle" x="124.64" y="-20.8" font-family="Times,serif" font-size="14.00">AI engine</text>
<text text-anchor="middle" x="124.64" y="-6.8" font-family="Times,serif" font-size="14.00">(Alibaba PAI, KubeFlow+Kuberntes, etc)</text>
</g>
<!-- Argo&#45;&gt;AI -->
<g id="edge8" class="edge">
<title>Argo&#45;&gt;AI</title>
<path fill="none" stroke="black" d="M147,-85.73C139.11,-81.14 132.04,-75.33 126.62,-68 122.11,-61.88 120.5,-54.06 120.32,-46.47"/>
<polygon fill="black" stroke="black" points="123.82,-46.62 120.83,-36.45 116.83,-46.26 123.82,-46.62"/>
<text text-anchor="middle" x="165.15" y="-56.8" font-family="Times,serif" font-size="14.00">submit AI job</text>
</g>
<!-- DBMS -->
<g id="node12" class="node">
<title>DBMS</title>
<polygon fill="none" stroke="black" points="479.88,-36 267.39,-36 267.39,0 479.88,0 479.88,-36"/>
<text text-anchor="middle" x="373.64" y="-20.8" font-family="Times,serif" font-size="14.00">database system</text>
<text text-anchor="middle" x="373.64" y="-6.8" font-family="Times,serif" font-size="14.00">(Hive, MySQL, MaxCompute, etc)</text>
</g>
<!-- Argo&#45;&gt;DBMS -->
<g id="edge7" class="edge">
<title>Argo&#45;&gt;DBMS</title>
<path fill="none" stroke="black" d="M221.28,-85.79C219.74,-75.48 219.86,-62.72 226.94,-54 232.08,-47.66 243.42,-42.33 257.63,-37.9"/>
<polygon fill="black" stroke="black" points="258.7,-41.24 267.35,-35.12 256.77,-34.51 258.7,-41.24"/>
<text text-anchor="middle" x="289.99" y="-56.8" font-family="Times,serif" font-size="14.00">submit SQL statement</text>
</g>
<!-- Argo&#45;&gt;DBMS -->
<g id="edge9" class="edge">
<title>Argo&#45;&gt;DBMS</title>
<path fill="none" stroke="black" d="M322.05,-85.99C332.77,-81.36 342.94,-75.47 351.64,-68 358.38,-62.21 363.15,-53.94 366.48,-45.85"/>
<polygon fill="black" stroke="black" points="369.84,-46.82 369.87,-36.23 363.24,-44.5 369.84,-46.82"/>
<text text-anchor="middle" x="415.5" y="-56.8" font-family="Times,serif" font-size="14.00">verify data schema</text>
</g>
</g>
</svg>
