<?xml version="1.0" encoding="UTF-8" standalone="no"?>
<!DOCTYPE svg PUBLIC "-//W3C//DTD SVG 1.1//EN"
 "http://www.w3.org/Graphics/SVG/1.1/DTD/svg11.dtd">
<!-- Generated by graphviz version 2.40.1 (20161225.0304)
 -->
<!-- Title: G Pages: 1 -->
<svg width="1007pt" height="573pt"
 viewBox="0.00 0.00 1007.00 573.00" xmlns="http://www.w3.org/2000/svg" xmlns:xlink="http://www.w3.org/1999/xlink">
<g id="graph0" class="graph" transform="scale(1 1) rotate(0) translate(4 569)">
<title>G</title>
<polygon fill="#ffffff" stroke="transparent" points="-4,4 -4,-569 1003,-569 1003,4 -4,4"/>
<g id="clust3" class="cluster">
<title>cluster_vm</title>
<polygon fill="none" stroke="#000000" points="8,-8 8,-557 517,-557 517,-8 8,-8"/>
<text text-anchor="middle" x="262.5" y="-541.8" font-family="Times,serif" font-size="14.00" fill="#000000">VM</text>
</g>
<g id="clust4" class="cluster">
<title>cluster_container</title>
<polygon fill="none" stroke="#000000" points="192,-16 192,-345 509,-345 509,-16 192,-16"/>
<text text-anchor="middle" x="350.5" y="-329.8" font-family="Times,serif" font-size="14.00" fill="#000000">sqlflow/sqlflow:latest</text>
</g>
<g id="clust5" class="cluster">
<title>cluster_minikube</title>
<polygon fill="none" stroke="#000000" points="16,-127 16,-526 184,-526 184,-127 16,-127"/>
<text text-anchor="middle" x="100" y="-510.8" font-family="Times,serif" font-size="14.00" fill="#000000">minikube</text>
</g>
<!-- User1 -->
<g id="node1" class="node">
<title>User1</title>
<ellipse fill="none" stroke="#000000" cx="580" cy="-477" rx="28.6953" ry="18"/>
<text text-anchor="middle" x="580" y="-473.3" font-family="Times,serif" font-size="14.00" fill="#000000">Lily</text>
</g>
<!-- Browser1 -->
<g id="node4" class="node">
<title>Browser1</title>
<polygon fill="none" stroke="#000000" points="635,-422 525,-422 525,-386 635,-386 635,-422"/>
<text text-anchor="middle" x="580" y="-400.3" font-family="Times,serif" font-size="14.00" fill="#000000">Web browser</text>
</g>
<!-- User1&#45;&gt;Browser1 -->
<g id="edge1" class="edge">
<title>User1&#45;&gt;Browser1</title>
<path fill="none" stroke="#000000" d="M580,-458.9551C580,-450.8828 580,-441.1764 580,-432.1817"/>
<polygon fill="#000000" stroke="#000000" points="583.5001,-432.0903 580,-422.0904 576.5001,-432.0904 583.5001,-432.0903"/>
</g>
<!-- User2 -->
<g id="node2" class="node">
<title>User2</title>
<ellipse fill="none" stroke="#000000" cx="708" cy="-477" rx="28.6953" ry="18"/>
<text text-anchor="middle" x="708" y="-473.3" font-family="Times,serif" font-size="14.00" fill="#000000">Bob</text>
</g>
<!-- Browser2 -->
<g id="node5" class="node">
<title>Browser2</title>
<polygon fill="none" stroke="#000000" points="763,-422 653,-422 653,-386 763,-386 763,-422"/>
<text text-anchor="middle" x="708" y="-400.3" font-family="Times,serif" font-size="14.00" fill="#000000">Web browser</text>
</g>
<!-- User2&#45;&gt;Browser2 -->
<g id="edge2" class="edge">
<title>User2&#45;&gt;Browser2</title>
<path fill="none" stroke="#000000" d="M708,-458.9551C708,-450.8828 708,-441.1764 708,-432.1817"/>
<polygon fill="#000000" stroke="#000000" points="711.5001,-432.0903 708,-422.0904 704.5001,-432.0904 711.5001,-432.0903"/>
</g>
<!-- User3 -->
<g id="node3" class="node">
<title>User3</title>
<ellipse fill="none" stroke="#000000" cx="890" cy="-477" rx="28.6953" ry="18"/>
<text text-anchor="middle" x="890" y="-473.3" font-family="Times,serif" font-size="14.00" fill="#000000">Eva</text>
</g>
<!-- Client -->
<g id="node6" class="node">
<title>Client</title>
<polygon fill="none" stroke="#000000" points="999,-422 781,-422 781,-386 999,-386 999,-422"/>
<text text-anchor="middle" x="890" y="-400.3" font-family="Times,serif" font-size="14.00" fill="#000000">sqlflow command&#45;line client</text>
</g>
<!-- User3&#45;&gt;Client -->
<g id="edge10" class="edge">
<title>User3&#45;&gt;Client</title>
<path fill="none" stroke="#000000" d="M890,-458.9551C890,-450.8828 890,-441.1764 890,-432.1817"/>
<polygon fill="#000000" stroke="#000000" points="893.5001,-432.0903 890,-422.0904 886.5001,-432.0904 893.5001,-432.0903"/>
</g>
<!-- Jupyter -->
<g id="node7" class="node">
<title>Jupyter</title>
<polygon fill="none" stroke="#000000" points="500.5,-314 289.5,-314 289.5,-276 500.5,-276 500.5,-314"/>
<text text-anchor="middle" x="395" y="-298.8" font-family="Times,serif" font-size="14.00" fill="#000000">Jupyter Notebook server +</text>
<text text-anchor="middle" x="395" y="-283.8" font-family="Times,serif" font-size="14.00" fill="#000000"> SQLFlow magic command</text>
</g>
<!-- Browser1&#45;&gt;Jupyter -->
<g id="edge3" class="edge">
<title>Browser1&#45;&gt;Jupyter</title>
<path fill="none" stroke="#000000" d="M547.3323,-385.8767C537.2491,-380.2152 526.1335,-373.905 516,-368 488.6515,-352.0634 458.136,-333.6488 434.592,-319.3016"/>
<polygon fill="#000000" stroke="#000000" points="436.2902,-316.2377 425.931,-314.0157 432.6435,-322.2128 436.2902,-316.2377"/>
<text text-anchor="middle" x="584.5" y="-356.8" font-family="Times,serif" font-size="14.00" fill="#000000">SQL/Flow program</text>
</g>
<!-- Browser2&#45;&gt;Jupyter -->
<g id="edge4" class="edge">
<title>Browser2&#45;&gt;Jupyter</title>
<path fill="none" stroke="#000000" d="M692.9533,-385.8281C682.7874,-374.7183 668.4419,-361.1259 653,-353 609.3773,-330.0448 556.9615,-316.1423 510.8023,-307.737"/>
<polygon fill="#000000" stroke="#000000" points="511.2028,-304.2539 500.7485,-305.9741 509.9938,-311.1487 511.2028,-304.2539"/>
</g>
<!-- SQLFlow -->
<g id="node8" class="node">
<title>SQLFlow</title>
<polygon fill="none" stroke="#000000" points="430.5,-60 297.5,-60 297.5,-24 430.5,-24 430.5,-60"/>
<text text-anchor="middle" x="364" y="-38.3" font-family="Times,serif" font-size="14.00" fill="#000000">SQLFlow server</text>
</g>
<!-- Client&#45;&gt;SQLFlow -->
<g id="edge11" class="edge">
<title>Client&#45;&gt;SQLFlow</title>
<path fill="none" stroke="#000000" d="M865.437,-385.6544C842.2463,-366.0387 811,-332.6276 811,-295 811,-295 811,-295 811,-97.5 811,-60.6682 568.9083,-47.9892 441.0497,-43.8614"/>
<polygon fill="#000000" stroke="#000000" points="441.025,-40.359 430.9204,-43.5445 440.8061,-47.3556 441.025,-40.359"/>
<text text-anchor="middle" x="879.5" y="-194.8" font-family="Times,serif" font-size="14.00" fill="#000000">SQL/Flow program</text>
</g>
<!-- Jupyter&#45;&gt;SQLFlow -->
<g id="edge5" class="edge">
<title>Jupyter&#45;&gt;SQLFlow</title>
<path fill="none" stroke="#000000" d="M380.0448,-275.8608C372.1175,-263.8221 364,-247.5709 364,-231.5 364,-231.5 364,-231.5 364,-97.5 364,-88.7318 364,-79.1843 364,-70.5196"/>
<polygon fill="#000000" stroke="#000000" points="367.5001,-70.5 364,-60.5 360.5001,-70.5 367.5001,-70.5"/>
<text text-anchor="middle" x="432.5" y="-150.3" font-family="Times,serif" font-size="14.00" fill="#000000">SQL/Flow program</text>
</g>
<!-- Argo -->
<g id="node10" class="node">
<title>Argo</title>
<polygon fill="none" stroke="#000000" points="169,-495 115,-495 115,-459 169,-459 169,-495"/>
<text text-anchor="middle" x="142" y="-473.3" font-family="Times,serif" font-size="14.00" fill="#000000">Argo</text>
</g>
<!-- SQLFlow&#45;&gt;Argo -->
<g id="edge6" class="edge">
<title>SQLFlow&#45;&gt;Argo</title>
<path fill="none" stroke="#000000" d="M346.6092,-60.0478C311.7209,-97.268 232.9507,-186.581 191,-276 163.8204,-333.9341 150.739,-408.5845 145.2969,-448.6228"/>
<polygon fill="#000000" stroke="#000000" points="141.8023,-448.3561 143.9878,-458.7231 148.7442,-449.256 141.8023,-448.3561"/>
<text text-anchor="middle" x="272" y="-227.8" font-family="Times,serif" font-size="14.00" fill="#000000">Argo workflow</text>
</g>
<!-- DBMS -->
<g id="node9" class="node">
<title>DBMS</title>
<polygon fill="none" stroke="#000000" points="271.5,-313 200.5,-313 200.5,-277 271.5,-277 271.5,-313"/>
<text text-anchor="middle" x="236" y="-291.3" font-family="Times,serif" font-size="14.00" fill="#000000">MySQL</text>
</g>
<!-- Argo&#45;&gt;DBMS -->
<g id="edge7" class="edge">
<title>Argo&#45;&gt;DBMS</title>
<path fill="none" stroke="#000000" d="M150.1995,-458.6899C158.5925,-440.183 172.1859,-410.8482 185,-386 196.2391,-364.2059 209.856,-340.0097 220.1915,-322.0489"/>
<polygon fill="#000000" stroke="#000000" points="223.2915,-323.6797 225.2672,-313.2707 217.2315,-320.1757 223.2915,-323.6797"/>
<text text-anchor="middle" x="266.5" y="-400.3" font-family="Times,serif" font-size="14.00" fill="#000000">submit SQL statement</text>
</g>
<!-- Argo&#45;&gt;DBMS -->
<g id="edge9" class="edge">
<title>Argo&#45;&gt;DBMS</title>
<path fill="none" stroke="#000000" d="M169.3338,-473.7938C220.2057,-467.2041 326.2417,-450.3297 348,-422 357.7459,-409.3107 355.8681,-399.9317 348,-386 330.6455,-355.2713 307.0857,-367.623 280,-345 271.6134,-337.9952 263.4228,-329.3487 256.4264,-321.227"/>
<polygon fill="#000000" stroke="#000000" points="258.958,-318.7979 249.8649,-313.3605 253.5825,-323.2817 258.958,-318.7979"/>
<text text-anchor="middle" x="423.5" y="-400.3" font-family="Times,serif" font-size="14.00" fill="#000000">verify data schema</text>
</g>
<!-- AI -->
<g id="node11" class="node">
<title>AI</title>
<polygon fill="none" stroke="#000000" points="176,-173 24,-173 24,-135 176,-135 176,-173"/>
<text text-anchor="middle" x="100" y="-157.8" font-family="Times,serif" font-size="14.00" fill="#000000">AI engine:</text>
<text text-anchor="middle" x="100" y="-142.8" font-family="Times,serif" font-size="14.00" fill="#000000">container&#45;local run</text>
</g>
<!-- Argo&#45;&gt;AI -->
<g id="edge8" class="edge">
<title>Argo&#45;&gt;AI</title>
<path fill="none" stroke="#000000" d="M114.6359,-464.7446C92.5039,-452.7542 65,-432.1838 65,-404 65,-404 65,-404 65,-231.5 65,-213.9397 72.5558,-195.9667 80.6462,-181.7555"/>
<polygon fill="#000000" stroke="#000000" points="83.7634,-183.3654 85.9658,-173.002 77.7814,-179.73 83.7634,-183.3654"/>
<text text-anchor="middle" x="113.5" y="-291.3" font-family="Times,serif" font-size="14.00" fill="#000000">submit AI job</text>
</g>
</g>
</svg>
